<mxfile host="app.diagrams.net" modified="2020-10-22T11:45:19.327Z" agent="5.0 (Macintosh; Intel Mac OS X 10_13_6) AppleWebKit/605.1.15 (KHTML, like Gecko) Version/13.1.2 Safari/605.1.15" etag="6fC2KcCHJB3JvlIE3IUg" version="13.8.1" type="github">
  <diagram id="R2lEEEUBdFMjLlhIrx00" name="Page-1">
    <mxGraphModel dx="1426" dy="941" grid="1" gridSize="10" guides="1" tooltips="1" connect="1" arrows="1" fold="1" page="1" pageScale="1" pageWidth="850" pageHeight="1100" math="0" shadow="0" extFonts="Permanent Marker^https://fonts.googleapis.com/css?family=Permanent+Marker">
      <root>
        <mxCell id="0" />
        <mxCell id="1" parent="0" />
        <mxCell id="9yCa0ICLq8U-drlUduMJ-1" value="" style="shape=image;verticalLabelPosition=bottom;labelBackgroundColor=#ffffff;verticalAlign=top;aspect=fixed;imageAspect=0;image=data:image/png,iVBORw0KGgoAAAANSUhEUgAAA7YAAAGaCAYAAAA7C9/8AAAAAXNSR0IArs4c6QAAAAlwSFlzAAAWJQAAFiUBSVIk8AAAQABJREFUeAHsnQm4VWP7xl9kLFOGCmlWFCmVoojmgShFIiWRISSFDA0kIpJ5iKgkpZFIczQZSoMGmotIKZLZd/7793z/N7vzneoMe5+91t73e13rrH32XsO77jW99zPcz35pkebUhIAQEAJCQAgIASEgBISAEBACQkAIhBSB/UPab3VbCAgBISAEhIAQEAJCQAgIASEgBISAISBiqwtBCAgBISAEhIAQEAJCQAgIASEgBEKNgIhtqE+fOi8EhIAQEAJCQAgIASEgBISAEBACIra6BoSAEBACQkAICAEhIASEgBAQAkIg1AiI2Ib69KnzQkAICAEhIASEgBAQAkJACAgBISBiq2tACAgBISAEhIAQEAJCQAgIASEgBEKNgIhtqE+fOi8EhIAQEAJCQAgIASEgBISAEBACIra6BoSAEBACQkAICAEhIASEgBAQAkIg1AiI2Ib69KnzQkAICAEhIASEgBAQAkJACAgBISBiq2tACAgBISAEhIAQEAJCQAgIASEgBEKNgIhtqE+fOi8EhIAQEAJCQAgIASEgBISAEBACIra6BoSAEBACQkAICAEhIASEgBAQAkIg1AiI2Ib69KnzQkAICAEhIASEgBAQAkJACAgBISBiq2tACAgBISAEhIAQEAJCQAgIASEgBEKNgIhtqE+fOi8EhIAQEAJCQAgIASEgBISAEBACIra6BoSAEBACQkAICAEhIASEgBAQAkIg1AiI2Ib69KnzQkAICAEhIASEgBAQAkJACAgBISBiq2tACAgBISAEhIAQEAJCQAgIASEgBEKNgIhtqE+fOi8EhIAQEAJCQAgIASEgBISAEBACIra6BoSAEBACQkAICAEhIASEgBAQAkIg1AiI2Ib69KnzQkAICAEhIASEgBAQAkJACAgBISBiq2tACAgBISAEhIAQEAJCQAgIASEgBEKNQJ5Q916dFwJCQAgIASEQYgR++eUXt337dpu+//57t3XrVvv8008/OSZ+27Fjh/v999/d33//7f755x+b+Pyf//zH7b///u6AAw6wKU+ePDY/+OCD3eGHH+6OOuood+SRR9rE52OPPdYdd9xxLn/+/PbdEUccEWLk1HUhIASEgBAQArsjsF9apO3+lf4TAkJACAgBISAEYoXAd99955hWr17tli1b5pYvX+42btzotm3bZtMff/zheBUfcsgh7tBDD3UQUz7nzZvXCGi+fPnsuwMPPNBFTxBaiO5ff/21a4Lwsj0I888//2xzSDHf/frrrzbnuNiHJ70nnniiO+WUU9ypp57qSpYs6QoVKuQKFizoIMpqQkAICAEhIATCgoCIbVjOlPopBISAEBACgUbgzz//dGvXrnVfffWV+/TTT21auXKl+/HHH42A4iEtUKCAK1KkiCtevLgrXLiwg1Qec8wx7uijjzaiCZmF1EJaafvtt59N/sD5f2/N26qZ+894dqPJLl7gLVu2uG+//dYI9po1a4x0//DDD0a02T79oZ8VK1Z0VapUcaeddporVqyYke297V+/CQEhIASEgBBIFAIitolCXvsVAkJACAiBUCNA2PCXX37pZs+e7WbMmOFWrFjhIId4XYsWLerKlSvnKleubJ7QE044wR1//PEOckv4cBAbIc/0H++yJ+eLFi0y0ov3l76XKlXK1ahRw1WvXt2VL1/eiPq+yHYQj1V9EgJCQAgIgeRDQMQ2+c6pjkgICAEhIARiiAAeT0J+f/vtNyN8M2fOdBMnTnRLly61/Fc8mXg2IXsVKlRwJ598suWxxrALCd0UhHfDhg1u8eLFbtasWeaJhvgedNBBFrpct25dd9555xnRPeywwyyEOajkPaFAaudCQAgIASEQVwREbOMKrzYuBISAEBACYUSAMF6ILHmwEDqI7PTp090333xj+adnn322q1+/vnlkIbKp1vDsfv755+7DDz90H3/8sSOcmZBqvLn16tVzlSpVMrEqiK5IbqpdHTpeISAEhEBiEBCxTQzu2qsQEAJCQAgEEAFyUVEnRuQJ0gaZJeSYEFw8k5DZ008/PYA9T2yXEMYCLwwACxYssFzcc845xzVo0MC82IRhkz+sJgSEgBAQAkIgXgiI2MYLWW1XCAgBISAEQoMAgkpff/21mzp1qps8ebKF3pIn27BhQyNnEFu1zCGAKBUk97333nNLliyxsOzzzz/f1a5d24wClBxSEwJCQAgIASEQawREbGONqLYnBISAEBACoUFg8+bNbu7cuW7ChAnus88+M0XiCy64wF188cUWZhyaAwloRyltNH78eCO6KDGjrty4cWPLR0YVWk0ICAEhIASEQKwQELGNFZLajhAQAkJACIQGAXJnP/jgA/fOO+9Yfige2YsuusjVqVPH1ItDcyAh6SgCVIR1jx071i1cuNAwbtKkiZFcFKPVhIAQEAJCQAjkFAER25wiqPWFgBAQAkIgNAggCoV39tVXX7Was4gcNW3a1ESPEDpSiy8Cf//9t/vkk0/cqFGjHOrS1Mtt3bq1a968uaksx3fv2roQEAJCQAgkMwIitsl8dnVsQkAICAEhsAsBcmj79u3r5syZ46pWrepatmzpqlWr5kRod0GUax/++usv89y++eabJjiFx7xbt26uSpUqudYH7UgICAEhIASSCwER2+Q6nzoaISAEhIAQyACB4cOHuz59+lgJmptuusmRR4u3UC2xCOzcudPq4j799NPuiy++cLfccovr1KlTYjulvQsBISAEhEAoERCxDeVpU6eFgBAQAkIgMwj8+uuvrmfPnm7YsGEW8tquXTtXrFixzKyqZXIRAerijhgxwjzqlStXds8//7wZIXKxC9qVEBACQkAIhBwBEduQn0B1XwgIASEgBDJGABVevH+EHvfu3dtdeumlyuPMGKpAfPvnn3+a17Zjx47un3/+MWOEyiwF4tSoE0JACAiBUCAgYhuK06ROCgEhIASEQFYQwAN48803u6VLl7oXXnjBystkZX0tmzgE1q1b5wgXX79+vXvrrbdc2bJlE9cZ7VkICAEhIARCg4CIbWhOlToqBISAEBACmUFg+/btrkuXLqa6izjRWWedlZnVtEyAEPjuu+/c9ddf75iTH63w8QCdHHVFCAgBIRBQBPYPaL/ULSEgBISAEBACWUbg999/d6+88oobP368zUVqswxhIFYoWLCgGzBggDvkkEPcnXfe6X7++edA9EudEAJCQAgIgeAiIGIb3HOjngkBISAEhEAWEKBG7aeffmoCRA8++KDVps3C6oFalGNhSuVWtGhRU7Jevny5e/HFF1MZCh27EBACQkAIZAIBhSJnAiQtIgSEgBAQAsFH4KeffnJXXnmlO+CAA9y4ceOC3+E99BBCSwjumjVrXPny5V3evHn3sOR/v2b5P/74wx144IF27HtdOIQ/UqZp1KhRRm4rVqwYwiNQl4WAEBACQiA3EJDHNjdQ1j6EgBAQAkIgrghA7ubNm2cKyL169YrrvuK98f/85z9u4sSJ7uqrr3YrV67c5+527NjhnnrqKbds2bJ9LhvGBZo3b+4OO+wwM1akuhc7jOdPfRYCQkAI5BYCIra5hbT2IwSEgBAQAnFDwJeHqVq1qjvzzDPjtp94b5iSN3ic8+TJY15YSK5vkLqdO3c68oij29atW93dd99tYlnR3/MZTy7bDHMrWbKkq1mzpoWZ48VWEwJCQAgIASGQEQJ5MvpS3wkBISAEhIAQCBMCv/76qxG7rl27hqnbu/q6evVq80hS4obarZQrwku533772TLkmY4ZM8atWrXKBJWqVavmmjRpYsT1ueees2Xw8hYvXtzVr1/fQXbfffdd99lnnxlJvvDCC13t2rXdoYceumufYfpQuXJlN3nyZAdOHKOaEBACQkAICIH0CIjYpkdE/wsBISAEhEDoEPj+++/dtm3bQlnah77fcMMNbtGiRe6cc85xCxYscEuWLHGFChVyBx10kFu7dq275ZZb3IYNG1yVKlXcpk2b3LBhw9xvv/1mJBayR2M7mzdvtu/vv/9+U4ZGFRqSi0o06sJt27Z1Bx98cOjOb5EiRazP5B6rCQEhIASEgBDICAGFImeEir4TAkJACAiBUCEAqSV897jjjgtVv+ks5YnwRpIny+eHH37YoQjsw5LXrVtnXtrHHnvMDR482I0cOdKOE4/s0Ucf7Xr27GnHjHBWixYtzFP79ttvu3vvvde988479j+E+aWXXnIrVqwIHT50+PDDDzeSTyi2mhAQAkJACAiBjBCQxzYjVPSdEBACQkAIhAoBvJDko6bPPw3DQUBQK1Wq5K644grrLl5ZSCp1XMmRrVGjhsuXL5/78ssvjcTiwd24caOFLO+///5GblmRZVBGnj59uiM0m3xUyDI5u4Q24wnGu3vGGWeEAZbd+vjXX3/Z+eX41ISAEBACQkAIZISAiG1GqOg7ISAEhIAQCBUCBQoUcJA8VIRLly4dmr4jCEUIcbTgFXm1xx57rB0DRI4Q5c6dOzsIbYkSJVzZsmXtd59/+/fff9uyCGhBACGxfF68eLGRYfaBN/uSSy5x4BTGBkZ4sPFQqwkBISAEhIAQyAgBEduMUNF3QkAICAEhECoEIDynnnqqmzJlimvUqFFo+g45hWwiDuUbRBUSi6cVD/Tw4cPdt99+61544QWHaNSRRx7pZs2a5XzpGz/Haw2BzZ8/v+XnPvnkk+7444+37SxdutSI7kknneR3E6o5/ef4Tj755FD1W50VAkJACAiB3ENAOba5h7X2JASEgBAQAnFCAM8mHsmxY8da+G6cdhOXzTZt2tRq0D799NMm/DR37lz37LPPmioyO0QkCg+szzPt27eveWIhvYRfIzBFo44tpBhi/80337ghQ4ZYeDKCUg888IAbNGiQhSjbwiH6Q17tzJkzTQ2Z0j9qQkAICAEhIAQyQkDENiNU9J0QEAJCQAiECgHCkCGIhKvi2QxT69ixo7v00kvdrbfe6ooVK+aaNWtmXllI6iGHHOIuvvhiI+t169Z1J5xwgolHVa9e3bzTTzzxhHln8eQ++uij7r777jNiiwJy79693YknnugqVKhgRJjvwhSm7c8hpJawasoY4a1WEwJCQAgIASGQEQL7RUKY0jL6Qd8JASEgBISAEAgTAuSX9u/f3wSTCNX1JWLCcAx4ZCdNmmQ5wohHlSlTxkr3QEypPUsoLsdE2HLNmjUtn3jq1KnmxSxXrpzbsmWL1axFTZl1IcVffPGFw/uLp5c6toULFw4DFLv1kfI+N998s4livfjiiyK2u6Gjf4SAEBACQiAaARHbaDT0WQgIASEgBEKNAMJJl19+uZG5ESNG7ArTDfVBpWjnCbXu16+fhVRTBuncc89NUSR02EJACAgBIZAZBBSKnBmUtIwQEAJCQAiEAgHq2FLvldI4Xbp0MZXgUHRcndwNAbzvw4YNcy+//LK74447RGp3Q0f/CAEhIASEQEYIiNhmhIq+EwJCQAgIgdAicNZZZzlyT8eNG+fuvfdet2PHjtAeSyp2HE/t0KFDXa9evVy7du1c+/btUxEGHbMQEAJCQAhkEQGV+8kiYFpcCAgBISAEgo8AgksISd1///1u+/btRnDDlHMbfITj00NyhQcOHOjIp7322mvt/MVnT9qqEBACQkAIJBsCyrEN0RllkEZ4FhOfmf744w8TCaHkA+IjfkITjPqI1EH0E6qhlMSgFiDlIZj4308hgkJdFQJCQAhkCoEPPvjA9ezZ01HntlOnTq5OnTqZWk8L5T4CCxYsMPGvTz75xHXu3Nldd911ud8J7VEICAEhIARCi4CIbUBOHQqWeBV+/PFHt3XrVptv27bN/fTTT/Y9n3/++WdHiJYnt8xZDxLrJwiu/wyxTT9BbvPkybMbqaWcxBFHHOHy58/vjjrqKFOdZH7MMcfYxPeUWIAgqwkBISAEwoYA+bYPP/yw5d02b97cwlsLFiwYtsNI2v4SKv7mm2+ap5Z3DSWLzj///KQ9Xh2YEBACQkAIxAcBEdv44LrXrVK+YP369VbWYePGjY7/N23aZIQWL6wnpxBQvKv58uUzYnnYYYfZ/xBRP/Edy/kJ8okHFkLLdiC+THhymbP93377zQgyJBmPL/OdO3cacWbuvcBsAyLMviC51E+k1MTJJ5/sSpYsaaUjEGpREwJCQAgEHQGMg0OGDHGDBw+2ZyrewMsuu0yqyQk+cXjUn3/+ebdmzRqrQ0xObRjLEiUYRu1eCAgBISAEIgiI2Mb5MiBfaMWKFW7hwoVu+fLlbvXq1VabENIJacU6feyxxzpqFR5//PFGICGL1B2kdmHevHltgsBCMCGwPrQY4pndxv4hu8zx/EJuf/31VyO4kFvIL1b0zZs3W31E5t9++62jlAbfQ37pC2S3ePHirnTp0q58+fLulFNOsZC/7PZL6wkBISAE4oUAz7tFixa51157zU2cONGVKlXKdejQwTVq1Cheu9R294AANXmfffZZR9hx9erVLez47LPPNsPsHlbR10JACAgBISAE9oqAiO1e4cn6j4QTz58/33300Ufu008/dWvXrjUCSTjvSSedZASwWLFi5vXE++mJK3OIaxDDffH0eq/uL7/8YqT3m2++cXibV61aZcSd/zl2vMV4cytXruzOO+88V6FCBTvGrCOpNYSAEBAC8UGA5xjP6UGDBrlp06bZc/n66693l1xyiUWpxGev2ioIgDceWggt6tVt27Z11apVM6OuEBICQkAICAEhkBMERGxzgt7/rwu5mzJlinv//ffd4sWLLdwXL2bFihVdpUqVzIuJNxavqw8nDiKBzSoUnvDi3cXbi0f366+/NkLPoBHii0AVOOARufDCC43cZ3U/Wl4ICAEhEA8E0DBYsmSJEVye3zynIVpXXnmliFYMAccwOmrUKKtJS+TSueeea3nOvB+VzhJDoLUpISAEhECKIyBim80LAE/smDFj3MiRI92yZcssnPicc85xdevWNSJXqFAh815C7JKBxGYWJsguoc2QXYguXutJkya5OXPmWJjzGWec4S6//HIjuoQxqwkBISAEEokAYns8r3imI2A0bNgwe1Y1aNDAXXPNNRYmS9qFWtYR+Pzzzw1PSC3pKxdddJFr3bq1K1eunOU5o+GgJgSEgBAQAkIgVgiI2GYBSVSJseq/+uqrbu7cuSak1LBhQxO8gLCRF+sFl7Kw2aRelJw2GmrPDHIY4IAhebyoXiLgUrt2bQm4JPVVoIMTAuFAAN0BvLjk3xKmPG/ePPPiEqLctGlTM1pirFTbMwLkML/33ntuxIgRlqpy6qmnulatWhl+3piZE32IPe9ZvwgBISAEhECqIyBim4krAMEnBjlvvPHGbpZ8PLQIPKllDQEMBNOnTzcBF/KtCP+79tprbfAjNcysYamlhYAQiA8CeHJXrlzpRo8ebZE5hNCii0Ad3Pr16zuEjlCLx+sIUUslsuZLyoE8hgDqz3744YduwoQJ5vlGDLFJkyYWnYPRN5WiluJzNWqrQkAICAEhkBkERGz3gBJhU0uXLnUvvviiDWwgX5QhaNmypQ1u9rCavs4iAuThvv7662Y4QG0ZfNu3b295yQr/yyKYWlwICIG4IYC6PcSNCa8kZK1MmTKuZs2aJoJUtmxZS0nhe69enwyhtkTdMJFmgkcbkUCwIAIHAyU5yjy78cxC+iG0p59+umEQt5OhDQsBISAEhIAQyAABEdt0oJBrhWX+pZdecuPGjbNyEB07djS1TFmd04EVw38RFxk+fLiVfyA3t0WLFibiQhkhhf7FEGhtSggIgRwjsHXrVtMNmDx5sqn7rlu3zp5TaCuQP3raaaeZOjwigiji8wxjQjXek94cdyLGG/DkFY0E6p0zQVipL4soIO9FSCw12BEL5FgRBiSVhHI9eGnVhIAQEAJCQAgkEgER2/9Hn5f6V1995YYOHWoEi5f07bffbtbnRJ6gVNs35+Gtt95yAwYMsLzcq6++2hRKS5QokWpQ6HiFgBAICQLU+SYclxI2iAlCBPFsYgw9+uijrbwbaRbkmEIIKf121FFHWS1z6pn7CfLLOn6KhceXZ6qvWe7F/YhI8hMElnBiSrZhVPz+++/dhg0bjMByXKyLmj9l6vDKomTMdPLJJ4fk7KibQkAICAEhkCoIiNhGzvS2bdvMO/vcc8/ZS/yWW26xfE+s62qJQQCPACJdAwcOtAHgTTfd5BDqot6vmhAQAkIgyAhAICGIkNwvv/zS8k5Ju4Ao8mzDK4rnFsKYL18+I78Q3SOPPNKecWg3RNc45zPLe3FCCC/kFyIMMfXEFRJL/iv7J/qIer0I9THxP3M0DiDdvPfwyPIdy7M9+kPeMKQVIk6oNSHWEHH2pSYEhIAQEAI5R4BnNcZFnt/e4MhnvuP9wMQy0ZPXNuD57yf/TuD9wDM6eor+js+p0lKe2JJH269fPzdr1izzzuKlxaKuFgwEKMHxxBNPWMkgBFsICye8T00ICAEhEDYEGLgQxuy9oz/88INFpvAdnyGdpGX4gQ2ElUEPE4MaL1LFoIZtQZTRf8AI6wc9HhOIKoMZPzHgwTN8xBFHWC4wIdJM1JEtWLCgEdljjz3WHXLIIX4TmgsBISAEhEA2EcCwiPEQIyLPeJ7vfIdhkf+Z8z/Pcp770VE0fAeppflnO3Oafw9Ezz2J9dE/fo6xEoMpBkuih6jewuSf/7wPMK7yvkiWltLElpIOPXr0sJf9vffea8IXyXJik+k4uLmpF/zkk0/aDck5Q5FaTQgIASGQTAhAZD2p9R5W723le090GdCQ89q5c2f31FNPuSJFihiBjSaz3uvLwIYJYgsBTqYBTDKdex2LEBAC4UQAEophkqgc9Ba+++47t2nTJptDZonS4XnOWBajJMZDnslE4jDnWe3/h2TyP89rb5T0z3XmPPv9eyB6zvshfZQORJn3B5PvA0ZStgHxZZ+QXIybOPRQ/eddQrQOBlP6EsaWssQWJd7u3bu7Bg0auLvvvttOZhhPYCr1mYFct27drATHY4895urVq5dKh69jFQJCQAjsQgBNiJoRRWaijch/VRMCQkAICIH4IwCJRUeBNBPKgSKwhwcWgotXFUJI9AteUiYiYiCKeE7xkDL5tBMIbLyMjfSFPkF40VGAZDPxmf5Cvrds2WJRQxwT30O+6Q+pMUWLFrUJbQXSUsKiq5CSxJa8TQgSYa233nqrXWTxvxW0h1ggwM143333Wc1ElKtr1aoVi81qG0JACAiBUCHwxRdfmGF20qRJpsQcqs6rs0JACAiBkCBAuDDP23nz5plIIEQWwohnFU8nBBDBWeYQWMgsxBACi2c0yA1PLx5dHx7NGHttJAWQdBm8z3ihIcM0xA8p5Va1alUrcQdhD2JLOWI7duxYq5PatWtXhyARrni1cCFASAUheO+++67VlORGUxMCQkAIpBICIrapdLZ1rEJACOQmAijEz5w505wo1C2H3ELkKOXGmPOUU06x/8lbxfsKySXMOFkaOb8QWggv3tyVK1eaGCJYoJpPK1WqlLvwwgvNwYRXNygtpYgtReUbNWrkmjdvbh5bYsvVwokANx3nEeXRadOmSS05nKdRvRYCQiCbCIjYZhM4rSYEhIAQyACBH3/80X3wwQem6TJ//nzztlaoUMGdf/75jjnq8PAGr1KfwSaS9itClHEqQfDJISYM+6OPPrISd4gYUpKzSZMm7pJLLkm4wGtKEdtmzZrZiaGMjJSPw3//cXNRT5Fat3369An/AekIhIAQEAKZREDENpNAaTEhIASEwF4Q+Pjjj6205IcffmiCTRBZCBpkFmElwolV/nN3ABGuQpwKry76N++9954ZBcjbZVx+7bXXusaNGyckKjZliO3o0aMtfPWVV14x1/nupygY/2EJGTJkiCmTXXrppcHoVMB7MWzYMHfdddc5wiOwGKkJASEgBFIBARHbVDjLOkYhIATigQDj7REjRrjnnnvOEc1ZrVo1c5Kg24LwEwJKyRRaHA8M/TYRqYLokqv76aefGo+ZMGGCkdq2bdta+if5ubnVkicgfB+IDR061BQky5cvv48lE/czFwXeZEh4ThvhuYQFTJ06NaebCvT6V1xxhcX5DxgwIND9VOeEgBAQAkJACAgBISAEEocA4caMF+ECd911lxHa2bNnm7fxqquusmhOvLMitZk/R5QPojQRuca1a9d2gwYNMrGtW265xcG9zjjjDHf77bebgnTmt5r9JVOC2C5ZssQSnykPg1pZdhq1n/wUXQ/KbwtrBSppzMn/RGmMxv++HiFue19gOXo9X5iZGHbqWyH/TWMbfjv8z7psg236xjqsDylmzv80kr3nzJljymZ+2eg5x8K2/focU/S+WNbvj9/S/8569CX9+qwDDiyf0fGyD/Bgog85bdxQeGzHjRtn+83p9rS+EBACQkAICAEhIASEQHIgwLgUtV8qaeCZ7du3r7vmmmvc4sWLjeSWK1fOarsmx9EG4yjw0N55552GMbXWyccFe8qrorrMOYlXyxOvDQdpu4RsoX6Mill2GicACwRkDdKGGi+tadOmrl27drZtPKPvvPOOq169unv77bfdZZdd5lq1auWol/vWW29ZrSjU1G6++WZXuXJls25ARPmdZHUsRJx0iB/ElvkTTzxhFhD2we/Ib/fu3dthVWJZ+vX+++87wquppYXU+PXXX2+J2y+++KLVpKLf1J4iZyC6DR482NY588wzHeG8iDBRE5HyR+QUsO3PP//csZ2FCxca4Ub9DBJJAj3hBi+//LKVmxg+fLhdqFhq8KBiocECVrp0adehQweLt2ff69evd6+99pqbMWOGbZ8cBsIUkETPSePYKAFEXbGyZcvmZFNaVwgIASEgBISAEBACQiAJENixY4ebPn26e/TRR23MyxiWcS7hxmrxR4D8ZLgQ3ACu8dhjj7lRo0bZOUAAtkCBAjHvREp4bCGE1JTKrgoyJG/y5Mnutttuc88884wRZDyr/P/II4/YScHyAwnkO7ynkLVnn33WTh7LQvo++eQTh4AVamu0hx56yIgfy6Oyxo23YMEC+8zNOH78eFP89R5avLCQRmS3CZOgdBHkEFnyunXrmlIZFw99xTPNMhBiQgTSN6wn7J9QAWTKqb2FAFP37t1tUUgidX4JaabvkFSWf/zxx410f/XVV5ZsD+mmQXZZH684JL9w4cJG9O+9917zHiP0xAMFMlyyZEkL96BkD9Ybf3y2oWz8Yd8UxCaBXU0ICAEhIASEgBAQAkIgdRFg3L5s2TJ3zz33WGnPMmXKmMOlV69eIrUJuCzIWcYph9MLh1a/fv1sjqOL6M5Ytv9lPLHcekC2hWcUL2hGBC+zXWR9CCDkFfJGu/jiix0u9jvuuMO8toTFQta6devmCH+GtLVo0cLIHCeVk4nXE6sFRLJ///4WDoFXlYb3FS8w3lqW92HJbJdG//kOCwghwBBNvLFTpkwx0o7XtmXLlrYcfYJI4yE+99xzbf3oP3iw2d7TTz9t3mUeAng+UYdj25Dt4sWLu4cffthdcMEFDqLN9vF+k3RPH+gjcfM9evSwsGIeHHw3ceJElz9/fvfAAw8YEYd4Q3bx8nKs5P7SCFXg4oZc483ObuO80MaMGeMQ3VJuRHaR1HpCQAgIASEgBISAEAgvAoz5UenFWcSYFIdK/fr1w3tASdRznHgYGxir40hr3769RZq2bt3aeFEsDjUlPLZ488jpJIw4Ow1iyfpnn322JUH7beB9hfAhb83NQ+I0pWdoq1atssLGEFl+o1HAmFBZFNggeZBH7/Hk9ypVqjhi/fdlvYCQ4gFlO5Bs74kuVqyYufjx2vI7BJV+Z9Qgz4QANGzY0H5mn/SNBwKfSfbG+0w4MmEbhDjjTcYD7Ik2nlaIOI11CO2A3EJqaeCBQYAQbixnrIecOhc15B9POg1vd04a58CHiGMsUBMCQkAICAEhIASEgBBILQS2b99ukYVdu3a1lD30V0Rqg3cNwBXefPNN4xkYHnAKEikai5YSxLZoJPd027ZtDjW0nDS8lNENwkzzIkgQN4gfDYKI5zD9OnhGmSC1NKwXvvE9RJA5jTnb9EQS8gaZZLtezOnEE0/0q9ty3jPtt7Hrx3QfIL3sO30YsN/frFmzLHzjjTfesKR78pOj5br99qO94GzTHz+/gwvbg0TTdwg+52DLli2W00u49A033OCKFCmSrndZ+xcjAvuCgOOB5mZREwJCQAgIASEgBISAEEgNBBCIQrCIyMD777/fIirRjFELJgJwAqJK0d6B1OJAy6mjiyNNCWJ71llnmfcSwNITucyebggbOZwUI/Zt0qRJRg4hl367kDsa3kvIXbQFYsOGDbsEjkqVKmXLEV/uG15WlvdkGAILQfbEFu/pTz/9ZMdCKDOeUb7zbW1EaQx3PrW5IK3s32/LL+Pnfpt+7r/nQoMkImi1ceNGE7AirxcvK/tj+Wgy6wku6/Nb+v89gT766KMtlJucW6wzAwcOdCSO03JKbAk5IaeXBxlFoZmTG6wmBISAEBACQkAICAEhkNwIELl30003OZwyCKq2adMmuQ84iY7unHPOsbRF0gpJ2STCMyctJXJsi0Y8thUrVrSSMOR3Qgqz0iBr5LauW7fO6l5ByFD4peYskuEQPq+Y7IktYb0oJCMgRT4rgknk50KMGzdubMrI5LSSwwr5hAgjRY5AFMSSMF7yZ1FaZhm8w/wOgYbsIk4FiUO8CkVganINGTLECF2XLl3MO0pIBgrNhBUTphzdCFHmQeCJKHO+I38WgorYFr/zkIBMowQ9b948B4mHfPuwbn+8rM+64OAb4ckcLx5b4ukh3JBOHjhskxxh9hPttfbrZnZOH1GWRugKwo31BwMCOcZ4bgn/VhMCQkAICAEhIASEgBBITgQIZUWYFUcMaX1q4UKgRIkSZpCA1+CgmzBhglVoyc5RHBAR/umRnRXDtg7hCC+88IKRxazWrIK0QTAhnBBKxJEgfI0aNTJyRo4rRHfz5s0maQ2RhYgSvovXE/ViBJ4geiRLkxcLUebmI0+W37khIY2U38GbCykmBxYyzbqE29aqVcsIK/kCXAR4oukTpHPmzJn2me1DIvG8kvuL2BOx7OkJ3tKlS20ZSDreaAiq9y6To1uwYEHrO8rMn332mW2D/SMgBZYoEaPOfOWVVzq8sRBujgHBqTp16tjlgQcZsouqMvnJhDJPj8iuk/NAf+kX0t/pSXdWri2UmH1ZInDH4oNRgfPDeaIvOSHOWemLlhUCQkAI5BYCRPgwiIul6EZu9V37EQJCQAjECgGqleA4InWOsbNaOBGAS9WsWdNRjpRxPTpG2Wn7RUjbfxM6s7N2yNYhmRwSCLHCg5rZBkSXX365kTRU1vBoMhUqVGiXUBIEDu8kZBRSSWM9cnvxIEL8yCmF3Pk8VJaBDCOixHeQSbZLCLIni+QMkJNK7iyeZvaDlxMSR8NjyTaY4/VlGZaFqJLPSp/YLx7g6Ea/INr0l33SVzy8/juWZb8oGuMJhXTTR+rdcvFBFtk+feZ31sfbzLGzPxp9IpeYY8ErjefWHy/EnnWz6j23Df//n7lz5xrZx2DhRbv874hzEZaCJ5u8W6+c7H/XXAgIASEQZgQwWjZo0MCREoOxVk0ICAEhkGoIUHryvPPOc6S5EbHH+Fkt3AjMmTPH3m3PPfecOc+yejQpRWwhWgwEIGUjR47cpSa8L9AgiXhBWZ9w32gRpX2tq9/jgwDeCuLyCecmZzc679fvkdzbTp06uTaR0GdyhCHwakJACAiBZEBAxDYZzqKOQQgIgZwgwPiOiEmiKnGiBLWtWbPGtGVwDJFHmhOnTlCPMVb9IhKVFEuiWXnP7UkraE/7SynTBhfUoIhaGuG/1E7yeaJ7Asd/DyHCw1u6dOkMCZRfTvPcQQBPMTWEEYx68skn93hOCBUn1xbiiyFDTQgIASEgBISAEBACQiD8CJAaR6oe0XmkCQa1ESHZr18/08shPZEIR7U9I4CjCoVknIkYLLLaUorYAg4EFSsAOZ4tW7a00N59gQaxJZeTGqmSDt8XWvH9nbBuau9yThCHIix7b+26666zOH1EqwhvUBMCQkAICAEhIASEgBAINwJowJD6RvSeTwEM4hGRkgcJJ/Kzb9++lgIYxH4GqU+kel5wwQVu1KhRWe5WyhFbECLvcvLkyW7BggVWuJkLbl8WFPJWcYcrnDXL11jMViCntm7dupYvy8VO3u++GpafBx54wMSzunXrZiJc+1pHvwsBISAEhIAQEAJCQAgEFwEEhqh4klsCoXAGPIkVKlQw8VjS3dClodEXHCkIpTJOfeKJJ8zjiNcRUSvEVdF+oRQR2jdUIeHzRRddZAQOjy4EOKMGR3nwwQfdsGHDTLAWwkfU6ZIlS3ZxFzzBd911lzv33HNdjRo1LP0OAVca6/eI6ARTyQWtIQwBvXr1cuQnP/7447Z/KrwsXLhw1/aocEJ9WaIj2R/9Q/MntxqaPghJIXS7J1z21JeUJLaAcdppp7nZs2cbWeWkEarqL9A9gaXvE4MAglkIRKGQVqlSJTd69OhMkVrfW0JUCFnmAcPNjACWmhAQAkJACAgBISAEhEA4EUDclKoaOJ7i3eALVAz54IMPjEyT18uY9JNPPrEcXwggy0AayfWl7CbaLjjEGMOSN4qILIQRoob+CxOeZkqG3n333VbCE8KbvjFmpYLIVVddZWVw2D4kF7EsMEAHqFWrVpZ2R2UV+A3CSyxPg5CyPmSYKieIt1IqlMospGeyPThQixYtjHSTpknfKb1Do38Qa/aHSGxuNETAqL4CHqQfZqlFPJUp3SIXWlpETS0toiicFrG2pEUsIGmRk5rSmATl4COGhrTIQyMtcsOmRfJp0yKWpbSIsnK2uxcJRU6L1AZOiySlp0VIbra3oxWFgBAQAolGIOI9SIsoy6ctXrw40V3R/oWAEBACuYpAhMylRdSQ0yKVStIi5Ceu+2a82LFjR3vefvzxx7av5cuXp0W8xWkRApkWqbSSVq1atbRIyUz7LUJk0yIOs7SIZ9f+j1QDSYt4ZtPatWtn/48YMSItQibTBgwYkAYHoUWcLyTepkVyhu3/6D+RaMW0CLlMi4Qyp0W8vfZThAinRaqdpC1atCgtkqKXVrly5bRIaLb9xtgZXsPvkaoraREBJls/Ut0lLUKw0yLkOi0ivJoWCfc1zsNKfv9sL+JdTotEp6ZFyKxtjz/PPvtsWsRJlPb666/v+i6eH8AlElmbFjFcpEU8zlnaVZ4sseAkXBirwEMPPWQub1z15N2iWHbJJZe4IkWKSDo8AeccyxYCX3hmyaPFajN8+HAXeXBkuzeRu8JVrVrVwi5uu+02E56KPGQCnZeR7YPVikJACAgBISAEhIAQSFIESAtEEBZvJJ7QeDZKX0YMiC5CHneVVkNMNkJQzftJqc2I08TNmDHDarBStYMwYZah/f7771bukpKXtAh5NA8uSslPPfWUeVzZBw2P6oUXXmif/R+OjxKf1OjlmGmMiyljSVjz6aefbmNlwqHhM2xr4sSJ9jtjX9ZnWfqPhxjsmDOm9urMlN+ksTx6NMyJciSkmuUJZ8YzvGrVKlsu3n/YP8cGR8tqqHnKE1t/cmrXrm2x8c8//7xdmCSlE2ZArHypUqX8YprHEQFuvi+//NJ9+OGHJvBFaPiNN95o4RBZvbDTd5Mbk9a8eXMLGyHvlhxdlJPVhIAQEAJCQAgIASEgBMKDwCmnnGJjRsaKOR0j7u2oCc0lnJhSnxBE3wjR5X80ewglZgxLtQ4mxpf8H938OBSiC3EjZxeiCGEkZBlxKUKrM2rknDL5BuFje4QVr1y50pShmRctWtT6Wbx4cSPJfnnW9WVz2B/7J4Tb9wmHEo3/fegvpXbYPstChBkvly1b1m8yrnP6CB/AaODJd2Z3KGIbhRSWEBKrmzRpYuR28ODBpshFDm6dOnUsYTw3YvmjupQSH8k5IKkeQvvRRx/ZTU69YfID8JrHunXu3NnI7a233moq1+QZqAkBISAEhIAQEAJCQAiEAwHG5giJRsJtLQ80Xr3Oly+fw6NJPiteRMgWn4nyhBugAYOXFo/tqaeeat1AxCma2EIYIWs0clohxN27d7doUb6LhDG7QZF8V8RtM2qs70kov0M2aRB6uMqkSZPcu+++u8tZwzh33rx5RkxZLnpd/qd5gvvf//77l+2WKFHC/oGsgzGN/hFFCWHOjUZu7fvvv+8i4eZZ3p2IbQaQET6AOz8Sj+7w3E6bNs2hfkZCNp5dgM6MIm8Gm9ZXUQisW7fOTZ8+3Qgt6myUUiIEHKuQD+GIWjymH0mc58GEwt2YMWNc0YiVS00ICAEhIASEgBAQAkIg+AgwHqfk41tvvWXjc7yK8WgFChSwCipE+sENEIpC6ZhUOcpPRnJZLbQYDyPhxYQBIyqFY4a0OpxmOHC8MBT9RqEYRWK+p3oH4k6EL3vBpujjgCDjMcZz7Jv3IuNphdxCXAkXxnuMo2jIkCEWAk14MvtHsMqvD3nFy83kCbL/DW8yqsr0HeLN9gmhhrwzTiccOjdaJJfZRfKYHVG0WW0HRCwOPbK6Uqosz8XMCeZEYq0hZACii9WCCxBrB2QMV71a5hDwsf+RpHn3zDPP2A1I2MbVV1/tOnToYA8PrGHxbl5KHFKLlYsQEB+mEe99a/tCQAgIgZwigIdg6NChrnXr1lkO1crpvrW+EBACQiDRCDCOgxSSB1qvXr241Ycl7LdcuXI21scZg2eW3F6Ujxm78htlafCaModo4hiDmEG88XrymTBjOAWOMcKo8ahCRNkmx0FJHSp/pG+QTvhHzZo1dzl9GEvTh6ZNm7qIEJTbtGmTeTjJ34UE0y8UjCGqeI8jAlPmlMNpROQp/cQzSz4v+8YTTSgzZX8Yk9MPcm2JpIRksgwlMyHl8W6QcEonoYsDL8hq2y/C1v/rz87qmim4PBcRFgvqqXJhYx0hnIALgJNNIrZPwE5BePZ4yNTXmjVrlt3A1PLCAlSmTBm7SUlmL1mypN38e9xAHH8gvII6YvSDcA41ISAEhEAYECD/iZQNBlMMrNSEgBAQAqmGAN5MnoM4mnBSxMPRhBERD+xPP/1kIbkQRhxfkEQIH55iSCHjSby3jGkpM0ldWP9/RBnZljvmmGN2hQVTZxaPLo0xMWG+Ptc1+jziWYXIsk0mGsJO27dvN6MmodJEIOJwoy/sHy6ybNkyC4dGJ4i8WTy3rA/to4QQy5InzBwySR8h3d5ggPeZ/oEtRBwvLg6gs846y8hvdB9j+Tmi6Owi6stGqLMTTSlim42zgVuei4xQWlz+U6dONWsM3xNfj/WEcGUGGyiZpVrjhmPQNXPmTJuwNHEzoNyGxYmcVm4ePLPcUIluGCoIgSYE5OGHH050d7R/ISAEhMA+ERCx3SdEWkAICIEUQABCieexcePG2Qpd3RdEeFbR38ETircTYkjoL6Qa0keD4NL4nt/5nvEtc5bzv3viynLR41/+57eMfI38xvp+W+wHLzLr+3X89n0f2CfL0Pz+o/sLeWVfvj8syzbgMb4Pfhm/TTzHkGhCsmvVqmXbjvUfCC31cnE0EUmZnSZimx3UotbhRHOxY8FBDhySC9nFSwmphehSsBmPIBYZXPzJ1rxVh5ufkAUsV4Q/EHZBKAFEH5KPpYoQDW6WIDVu4rFjx5pYFdLrlAFSEwJCQAgEGQER2yCfHfVNCAiB3EQARwrRd+3bt7fc1Vjum/EsziyIISQzlRsEGC9vPJx2I0eOdG3atHGR+rmuU6dO2YZZxDbb0P3vilz0WDtIEIfYeq8l8/Xr15u1BXJH+AJeyzPPPNNc+3gvUUkLeiOUgTh9iCwy5RB4LGWEaOORhchGClZbDgHHRigEYSEQWW85CuoxYqCIFNq2G4raZOnriAW13+qXEBACqYmAiG1qnncdtRAQAhkjgGhTixYtXMuWLU3sKOOl9G0QERg4cKCjUsl9991n3vFob3ZW+ytim1XEsrC8d+dDmiCFEEKKL6NSRuI2ZBcSTJ4uCeYQQ7y6Pj6e2k2IUxGyC/GNDjXIQjcytSiEnD7iecYyRaw9Mft4X4mxXxvJBSCen1h/LDXkAlDPivziChUqWHFq+uoJbBitWuQYIG+OQBgJ8+QUqAkBISAEgoiAiG0Qz4r6JASEQCIRoGRks2bNLErytddek7BeIk9GJvaNQ5CcWsRkH330UXfjjTfu4hGZWD3DRURsM4Qld77ctm2bkUjII4ppTJBfanJBIiG9kGNi+vF8kvjtJxLSIbvMvVcUzyjLMvex95BqSKuf2CYJ8OybOfmwfoK0shyklJBhtk9BapTTINw+uR2izX6TsUHqURmF5FIfDQ+7mhAQAkIgaAiI2AbtjKg/QkAIBAEBnDGtWrWyce6LL76YK0q+QTjusPWBiM/bb7/dnH2cpyZNmsTkEERsYwJj7DdCbSvIFWG+EF28p3yGkEJ6keaGmLIM5JUEcEipn2MFgdxCcvH0+jkhwyR/Q5A9OYbAQuAIiWby8fN4klOxoXx9xRVXWKg4tbswFqgJASEgBIKEgIhtkM6G+iIEhECQEGBsfNddd7lhw4ZZCRsI1EknnZRjb2CQjjGMfcFZB3cZPny4pf4RGUkaII6zWDUR21ghqe0kFQJTpkxxN9xwg9UCQwEujKHVSXVCdDBCQAjshoCI7W5w6B8hIASEwP8gMHr0aFPxJU3utttus9JAlOrxaXP/s4K+iBsCOOQQme3fv7+VJiLsGJEoHG6xbP/Vgo7lFrUtIZAECCBlTr4tkuPIj6sJASEgBISAEBACQkAIhAcBSsZ4xeRHHnnEVHeHDh1qujFENqrFHwG0e6i3jjhUhw4dTFPovffeszF2rEktRyOPbfzPqfYQUgQI8e7Vq5eVAnr88cddvXr1Qnok6rYQEALJhoA8tsl2RnU8QkAIxBOBL7/80urcQnTRj6E8UI0aNVypUqVMxDWe+061bVNzd/Xq1VY95d1333ULFy40QVYiIeM9lhaxTbWrTcebJQTIBejYsaPdoKi2UcZITQgIASGQaAREbBN9BrR/ISAEwogAz86xY8e6999/3wRazz77bHfBBRe4s846yyp8hPGYgtJntIAgsahTz5kzx7SBTj/9dCvDVKdOHdP+iXdf88R7B9q+EAgzAghs9e7d27Vr18717NnTJMkR2FITAkJACAgBISAEhIAQCBcCOCgQUIXgTp061eFd/OSTTyxElvKV1atXN5JbsGDBcB1YgnpL7uyiRYvc7Nmz3dy5c03sFlFacKxbt66VXspNnRp5bBN0IWi34UJgwYIFrm3btu6cc85xffv2NWXpcB2BeisEhEAyISCPbTKdTR2LEBACuYEAVUYGDhzoxo8fbzVuqYBRuXJlt2nTJvMwQnD5fNhhhzk8jdWqVXN4dIsXL54b3QvNPjZv3mxlevDKfvbZZ+aZPeKIIxyGAcbJFStWTJj3Wx7b0FxG6mgiEeBmRXgAFbeTTz7Zde3aVap6iTwh2rcQEAJCQAgIASEgBDKBwG+//eYGDRpkE6UwqXPbqFEjy69ldcrN1KxZ023cuNFSzz7//HPz4j755JNWSrNw4cLmxYXonnHGGS7VvLl4ZclRhvijbEwNWsqLEsFYpUoVw4bSPUWLFo25ynEmTu9ui8hjuxsc+kcI7B2BV1991XXr1s3kyrH0qQkBISAEEoGAPLaJQF37FAJCIGwIkE/7xBNPuC1btrjLL7/cXXbZZSZklCfPnn17kDbyRb/77ju3YsUK80oSuYfHl1qs1MQtX768eSZPPfVUV6JECYfHMhnaX3/9ZeT+q6++snBtSD5CUBgHjj/+eFe2bFnzYuPRLlSokDvuuOPcIYccEphD3/NZDUwX1REhEBwErr32Wrdu3Tqrh4ZlqmrVqsHpnHoiBISAEBACQkAICAEh4ObPn+969OhhpLRp06bu+uuvd6VLl86URxHSS71bJghcw4YN3c6dO40cQ3Q//fRTE0lCgGrbtm0ub9685sUtV66ciYyWLFnSyC8ezXz58gXybEDev/32W7dhwwa3Zs0at3jxYjum9evXu+3bt9sx4amGuFM26bTTTrNjhMBzvHszDCTygOWxTST62ndoEbjqqqssHGPatGn28ArtgajjQkAIhBKBJUuWmDAH4ieE0akJASEgBISAcxCzBx980A0fPtzUju+55x5XqVKlmBExxKYoBwkx3LFjh6NOK95NPJuE665du9a+YxlydfPnz++KFCliE0QRsutJMyJLCFlBfgmRjkXDowwJ/+WXX4yg0j88z+QOE2qNc4Y+kidL//fff39HP/BCQ2JRh8YrSx/pOwT2wAMPjBl+sTjGvW1DxHZv6Og3IbAHBAjJqFWrlkPpbcqUKYEKw9hDl/W1EBACSYQABe+bNWvmxo0bZ7lhSXRoOhQhIASEQJYRgKQNGDDAwo4hkpDbBg0a5IoeCmQSwsv8jz/+cJSKJJR51apVbvny5UZ8IZaQTL6HdEJ8PWmEOB500EFGcvGIQnT5zk/8xsSYk1Bh1mXiMxNjUvJgmX7//Xcj3X45CDMeVsgrYcPkByOGhfeaCQJLBRBIOCSXffgpyychACuI2AbgJKgL4USAhxRWwNq1a7vXX389nAehXgsBIRAqBBi0DIqIoDBo4zMDqfvuu8+E7chzYkCiJgSEgBBIFQQgcHhnCTuG7PE8vO6663KF0GYVY57XkNBff/3VSChEl1BmJsJ//WdIuieueIY9gWV/ngwzZ4LweuJ61FFHGYFlzkROLIT20EMPNeIaK69wVo87N5cXsc1NtLWvpEMAmfMLL7zQVJJ5mKoJASEgBOKBAN4Anjfdu3d3iJjcddddrk2bNjago8Y2Fvg+ffpYeQqs/GpCQAgIgWRFAIII4ZsxY4YZ+QgB7tChg+vSpYt5H5P1uHVc+0Zg/30voiWEgBDYEwJ4bKmJ1rt3bzdkyJA9LabvhYAQEALZQoABHDlReCMQ8Dj44IMduf2dOnUySzyDOUowFI2I2V188cU2sEMI5J9//snW/rSSEBACQiDICODxpOTMNddc46688kp79s2dO9c99NBDIrVBPnG51Dd5bHMJaO0muRHo27evYyIchtxbNSEgBIRAThEgT4tcWvLGfvzxR9e5c2fz0u4p3Hj8+PFGgCG1t912m2vSpImJf+S0H1pfCAgBIZBoBEi9QDRv8ODBbsyYMabSizDUeeedl+iuaf8BQkDENkAnQ10JLwJ4VW6++WYbhI4aNcrk4cN7NOq5EBACiUQAYooXlrrZM2fONPVjQo9RrdxXI0+Lmo0Y2ShTceONN7pzzz1XAnf7Ak6/CwEhEEgESMOA0DK2gtCSO8pzjZq0akIgPQIitukR0f9CIJsIkPTftm1bk1B/++23MzUIzeautJoQEAJJigBhx8OGDXMjRoxwxx57rIUc169fP8tHO3v2bNe/f39HzcVGjRpZ2B4KmGpCQAgIgbAgsHLlSjd69GhTfydS5YorrnCUW0Q5WE0IZISAiG1GqOg7IZBNBL7++mvXrl07k09/5ZVXlO+RTRy1mhBINQRQwMQjgZeWEOSWLVu61q1b5yiUmFw0SPIbb7xhObdXX321DQw1KEy1q0vHKwTChQA1VkeOHGkT5XMaN27sWrVq5U4++eRwHYh6m+sIiNjmOuTaYbIj8NFHH7lbbrnFakv269cvNEWtk/286PiEQFARmD9/vnlXCT+uU6eOlaooX758zLr71Vdfuddee81NmDDBlSlTxnXs2NFVr149ZtvXhoSAEBACsUCAMjhEq5BHS1oF0Sp4acuVKxeLzWsbKYCAiG0KnGQdYu4jgKWxW7du7qabbnK333577ndAexQCQiDwCPzyyy8mDIWiesmSJS1v7M0TR6AAAEAASURBVPzzz7d6g7HuPB7hjz/+2L388svuiy++cE2bNrUwZ8Kd1YSAEBACiUZg3Lhx7tlnn3Xr1693DRo0MMVjDHwqX5boMxOu/YvYhut8qbchQYD6as8884w9pB999FEbRIak6+qmEBACuYDA+++/bzVpCRdGCOWSSy5xJ5xwQtz3vHXrVjd27Fgj1AcccIAZ4Jo1axb3/WoHQkAICIGMEPj000+tBjf1uevWrWtaJXho8+XLl9Hi+k4I7BUBEdu9wqMfhUD2EcAbc//997vJkydbrdsqVapkf2NaMyURQG17T6VdUhKQJDjoH374wQgt5BIye+utt7rixYvnqlcC1eUNGzaY8W3o0KGWNoEBTvlrSXCB6RCEQEgQwDPbu3dvE4ZCuZ1nIR7aI488MiRHoG4GEYGkJrZYwrds2eIYSDBHkIMJ9Vom4vd//vlnR4gWHjamv/76yybkxfPkyWMTYRB8Zn7ooYea1Hj+/Pltjuw4QhxHH320O/74490xxxxjSpYajAbxcs/9Pn3//fcWjsy1hihMkSJFctyJiRMnuhdffNHqWuZ4Y9pAIBHgOYIIWcOGDQPZP3UqewhAIh944AF7Xzz44IOuRo0aCfVK8O6bN2+eu/fee62cRo8ePSz/Vu+v7J3fIK81ZcoUiyCiHrJa8iHAPXvwwQdbHeuqVasG+gAx+j/11FN2PRYrVsxRyowUDMbSevYE+tSFonN5QtHLPXQS8vntt99aPP6aNWscirTLli0zSzRkdufOnY6CzizHDX/IIYcYMT388MNtMME8b9689j2klemggw6yOSFaEF1e/JBdP9+xY4fbtGmTY87NycRvkGiW8/uB8BYsWNCVKFHCnXrqqTaH1BQuXFjWqD2cz2T8ukCBAmaRRI20Z8+e7vHHH8+RyikYLV++3BG6Q44chha15EIAYxvGC55lIrbJcW55PzF4g1yQd49n4rjjjkv4wfG+Q0Rq0qRJ7qWXXnK9evUy4RbKBJ111lkJ7586EDsEEBCjFuh5551nRnjGRWrJgwDKweSnXnfddYE9KMbK1NfmOcP4GiMf6u8itIE9ZaHsWOCJLaF4NIjk6tWr3dKlS034AvXIVatWORTUuEG4MU488USH9YcHN4XsmfgOTyqx+rzEPXHdf//9c3zCvIeXmxUCjVcOor1x40abCPVau3atmzlzpsNzB/Fl/wxoCLeoVKmSKb1BfMmtgkzTZLHK8akJ1AZQIe3bt6/VkXz++efdHXfckSNCynVE6CIvB4XsBOpUx6Qz3333nYMI8VxRCzcCGFfx0uKd5Z4lrzZoKQne04NSMvVuu3btaqHJKLtDxjHSqoUfAcYop512muVUcy2qJRcCjJURrfRj5iAdHWNlhOu6d+/uFi9e7Nq3b+86d+5sY/Mg9VN9SQ4EAkVssSByAzCgo4bVwoULHQR27ty55o2FxOJhLVWqlBHDa665xkoX8JBmgI9HNjebD1XGa8b+8c6VLl06wy5AzBmw4lXGaooq5euvv27eXwYWhDZXrFjREULCHDIEGWcfEF6R3QxhDc2XF1xwgRHRe+65x7z3l112mZ3b7B4AOXJBfIFl93i03r8I+Ofgv9/oU9gQ4B3G+wuPBNEVd955p3lpDzvssEAfCu9SBsd4Ve6++24j4uTA1atXL0fPq0AfdIp0jjEE4ysmteRDACNa0LzwPAdXrFjhKHs4fvx4e46gyn7KKack3wnQEQUGgYQTW7xPEFZyXxctWuRmzZrlZs+ebQQQUocHFgs3qpEVKlSwUN7cJrCxOFuEPTNByqPDC/Hy4oVm8MNE7iSqlSwLwSUH6+yzz7bcTIguJFokNxZnJPe30aZNG7dy5UrXpUsXiyZALEHnMvfPg/YoBOKFAANLUlUGDRrkiM7gGU5da6JywtQuv/xyV7t2bSPm5Ho3adLEypYxIPWRRWE6HvX1XwT0zvkXC32KDwIQ2m+++cZ0RaifTUoetWkvvPDC+OxQWxUCUQgkhNhiMUTAgLBdhCsgs5999pl5aslDJYkcNVlyfBBlSuZGmNc555xjE8eJF46QawZDM2bMMDVdrF2oVVarVs2ILt5cwqshv2rhQuChhx6yEPqbb77ZvCKcSzUhIATCjwDvtOnTp1sePcZJ7nWMWWFtCJiRswepJYSQKBPCk1FyLlSoUFgPS/0WAkIgTggQSYbSMYrvAwcONCMYER+tW7eWET9OmGuz/4tArhJbvJOQtjlz5li8PSG55JyefvrpjhBNCG2qlxvAmop1i4lBEZav+fPnm+gIZJcHBqS2cuXKlktctmxZwwzhK7VwIIBX/qKLLrLQRMLRNUgMx3lTL4VARghgqKX+IuJLiEPVr1/fVIbRd0iGRl1JjK+omA4YMMCEpjp06GCiU0EPrU4G/HUMQiAMCKxbt8598MEHbvDgwRZ1SKogkZbSAQnD2UuuPuYKsUVAifBirNnkHRHKdOaZZ5pKLGQWy7BaxghA/Mm79fLt4Dd16lTz5lIfFVLEb7Vq1bK8Y3lxM8YxSN8idEZ4DkItiLPgFdF5C9IZUl+EQOYQQOTrzTfftOgLiOwLL7zgIILJ1kiDoSQQpB1l99tvv91SavDEnHHGGcl2uDoeISAEMokAwqio+A8bNsxEUxnX3HDDDZZGmMlNaDEhEFME4kpsKVcxbtw4N23aNAs9Js+IUgc1a9aMST3PmCIRko2hpsyEgiVh3HgI8OROmDDB4b3FE4hQkZQsg31CEWmB3DZr1szKAT3yyCPB7rB6JwSEwC4EKO82ZswYC7cjEokSG5C8ZH/ukh5E/vDbb7/tXnnlFRN2vOqqq9wVV1yR9Me+6+TrgxAQAlZOE5V3DHs4r6hGQtgxugJqQiCRCMSF2FIvjXAEPIqEyEK0sGJT3oY6r2o5RwBhLcSHmCgvhJQ6YSA8WN544w0baJAbFUahrZyjE44t4Gn3defwvN92223h6Lh6KQRSGAFE/gjJJXqGSJm2bdumlNeSdzh1ual/SyoFXup3333XUiuS0Vudwpe6Dl0IZIgAY3tyaJcvX27iptTlJvpSwmQZwqUvcxmBmBJbLNe85N566y2rK9uiRQuT90YgJxZ1Y3MZm9Dsjnq9WMwbNGhg5ZHIw3344YftPCD2weBLLZgIIMSCiio55oULF3ZNmzYNZkfVKyGQ4gjwfnvmmWcs5A51YKIsUPlMVeMhFQsQeYTM8t4niohQZUob8SxTEwJCILkQ+Pzzz+0ZSBlOPLM4UvDUkqqgJgSCgkDMiO2HH35odTqp10rSON5CXnwitLl3qknSr1OnjuXcojJNyBghcuQ8kB8lkaLcOxdZ2RPlNCC3KCVjpKC8lZoQEALBQYCQuz59+lj4HcZC3m8nnHBCcDqYoJ6gl4GwFMZr0mKefvppM7B26tTJ8VxTEwJCIPwIoHT85JNPWmrhaaedZorvEFrp44T/3CbjEeyf04P6448/rC4noUmoG1PYHcstqr4itTlFN3vrI0RE+Dfhcgh9YGVr3LixhYZnb4taK54IIBDWuXNni24gX23Dhg3x3J22LQSEQCYRoCTd9ddfbyStXLlyZizkf5Ha3QHMnz+/lQMiBYkauJQHwqBKbXo1ISAEwonAr7/+amNIov7w0vbq1ctCkC+99FKR2nCe0pTodY6ILQNwwpBGjhxpoUj9+/c3y61KzwTj2sGDS2grxga8gFdeeaXjHFFrTC1YCHCuCG3EY0vEAy8UNSEgBBKHwNChQ03ocPHixSaU9MQTT5jxFi+l2v8iQH4ddei7dOliZekYB9SrV8/CFRHbUhMCQiA8CIwYMcKi/0gzIEpl1KhRrmXLllZuMjxHoZ6mIgLZJraEuhKCxEueMj7kCkoYKniXEIMNagM///zzlnfbo0cP17VrV6uPG7zepnaPChYsaPkr3333nUU9pDYaOnohkBgEED8k1JjBHMZAhJEaNmyYsrm0WT0L5ByjnoyI4UMPPeSo243QFOMENSEgBIKNwNy5c007gMgUHFfct4hDFShQQFGYwT516t3/I5AtYosCLxc8+Zwo8WKllRpa8K8p8m0p08CAAwXeP//8M/idTrEeUhLrqaeesvtKJYBS7OTrcBOKAM9D7r1q1ao5hKKoF44hUHlk2Tst1Osmz5bxAmlKhC/ecccd7ocffsjeBrWWEBACcUPg66+/dq1atbIoFVILZs2aZWHIRJFpfB832LXhOCCQZWK7YMECq71JHs2rr77qyA9UCw8CGCSovwjBRVDqr7/+Ck/nU6CnvEBQWmVAjQIr4UBqQkAIxA8BUjPmzJlj9x1q8uSRzZgxw1WoUCF+O02hLRMxhJAhdbsR4aIsCGGNSrdIoYtAhxpIBNLS0ky4krEg6WorV650EyZMsPRCRKLUhEAYEcgSsd28ebNr06aNDQBQP1QLJwLUvqUkE+cQ44RasBAgvB8RKaynEFw8HmpCQAjEFgEILToRd911l+WCIghFjVrUydVijwDpSniBiPQizBGcly1bJuNq7KHWFoXAXhH4z3/+Y5ETpKh5QxNio/PmzbPx/V5X1o9CIOAIZInYkptJ/gyy33ny5An4oal7e0OAwUXfvn0t33bhwoV7W1S/JQCBQw891ERYsJred999jrw/NSEgBGKDAKHGw4YNM7X4SZMmOdR8iWLBu6gWPwQIcSTce/To0W7VqlWWy0wOLurTakJACMQfga1bt5pHtlmzZq5fv36ubdu2Ds0cKpuoCYFkQCDT7HTcuHFu2rRp7qWXXnKI3CRj++WXX9z3339v9V4PO+ywZDzE3Y4JQQDCTlCxpA6xWrAQOPbYY03w69prr3UPPvig5bsg4BDE9tNPPzlEr2iEN9Ewfh111FGWoxjLHJ2ff/7ZET0CCVEqhEGtP5lEgPJ0eCWee+45m19xxRXmseU6zUnbtm2beUDwhPgWr+vfb5/3FYSQHLiwva9q1KjhMCgQNYTa9HvvvWdiXdTGpFydmhBIj8CPP/7o1q5d67jXeO4fd9xxrlixYlkSLeWeYRusX7Ro0ZR6f4Ab0V+kBKD0Xr9+fdNbAQc1IZBMCGSK2PKyfvnll13t2rVNWCOZAPDHwjGSZ/XAAw/YixYBkVRoCBQRmozRgtq3asFCoFSpUkZub7zxRouU4HwFsdwIInL0jYgOSCzklomBB+WLeHbEKspj5syZ7rHHHrN6eiVLlszRCUMBkjxzBtpqyY0A+WN4Zsnv5LqhnA/K/rFoY8eOtZx4rnHqt/vrv3jx4q5169YWfhvr+xa9C+pfE0J49tlnh07ghSoKd955p9W7JXqIYyGSCEOe8ptjcVUmxza4l7jWMYIwTvn999+NzGKMovzMDTfc4I4++uh9HizicEOGDLH3KO8jxnpBNRTv82CysMDOnTvdRx99ZBEqpFqgWA4OPDPUhEAyIpApYouFe82aNfYAQekwGRuDEcKkuNlzar0PEz5nnnmmw0o+cOBAEduAnjhIF+IOvIgJTSY3kOs1SI1cxS+++MJy5yCzDCI2bdpknhisw+RyI04Ri0YYKcXisb7ntEGQ8f7y4ldLTgTw8L/zzjvu9ddfNyMGZXwgm4T7x6rxfvz888/N61ioUCH3999/mzd14sSJdl8gnhSr69/3mfuAgSoiTLGMiPDbz605SvB4kThH5PyhpEyZJTQGwFIttRFYvXq1qWlDbgmbxenAO5AownvuuceILvN9lZvE44sYIxEBKHQn6zgv+lngCS0G3BIlSphBuEGDBoEbP6T2Fa6jjzUCmSK23BSEfZxyyimx3n/ctrd+/XobWPAQI3+AMIxKlSqZd5Ibn8Esg2O+wwoIYafWHgIX/mVKUXnUMRmw58uXz5LqeQn7BwceAMQwtmzZYuUMsAIGjXBkBmByLXr37p2ZRbVMghDAMk2ZDFIBCDvEiu2vwwR1abfdHnjggTawoIxUtJoikR58x6CE77nneMEyIGedxo0bmwea0irz58+3Y6patardp34HPnx0+fLlrnTp0kZoua8ZyJAvRHgVnjeeUeACyUaUBiKBJZ/1Z8+ebftmHcQy8AgRoUGJA8Kohw8fboOdoIQ2c25j5eH2OKbinOczYcdffvmleQMhTWXKlIk5FFw3PPvxQFL+zjfINB4lrneuXYzE5cqVcwhV0XiH0DcGmwzWuQ/Kli3rlixZ4vC0UH0AAkvYLnn2eJjq1avnChcubNdH3rx5bTnEANetW2fHhqq6D+fl2ifCAR0F+ochk3uFyAoaocyTJ092GzdutG0StUNos28Yp+gTKTr0n23H0iDg98Oc9xCkBU869+OUKVMckSoXXXRRoJ510X0O02euUZ4rPCPD0vDOYvBgDNezZ0/z6vu+N23a1Iw6RGF06NDBUuSIvuF65v4hQoLrnXEdxzw9Uo91bSQMmWgN7hs/VuO9w3uJdXlnhN2TyXuV5wpGIo6ZZwUCedTi9s8Fj6HmQiAZEcgUseVhwM0RJm8tAxryEnmA0Ri8MnBAiAdlZ7xIDLh5yPHSx0LMIJjvXnjhBXsg9unTx0I2sOxh9WeQQjgMA29e9jwseBgyWOZ7lGzxqgVlcJzZC5YagwyeMGAwqAEntWAhwEuaAR4DZEIpOWdBan6wxEs1unmrOPcEL1sGJ1xffIbUckyUWOGeY7CPp4vPeNW4F/FGEWoJQeb5w3b4jgE7A2zILstSm5lBOduGxBIWPSjiJcMghdidXx+y8Morr9j/lB5h4M62WJYXf1DuXfDEkIHRjD6rZQ0BnvfoByBSBNF89NFHjZSlvz6zttV9L53++vHXP/tlAA3x5Xr3xJYQft4zDMSJQGCADoHkuuZ6xljKe4bBOjn3XBPc/xi4eCbw7rn//vutY+zjm2++MYLIPYNhFmGmZ5991h1//PG77i20Fdq3b29GoZtuuskIM79j7CVyh3Xow6JFi6y/vP+PPPJIh8cLMkF/6Es8Grig+UAUEe9b3qcYnsmFTlZtj3jgmH6bXJdoIJByFSSDaPp+pv8fwyVRDzgUuAaiG8YZ7usVK1bYc55j497i+U4KAP9zLRPaTjoM7wWe9zt27DBNkfLly1tqwuOPP26EDxKNsNndd9/trrvuuuhdheYzzwPuYe597lk82dxL3N9qQiBVEMgUsYXUcZNw04SlMRjEa8NglTBOHoIUh2dgjdWZATThY3zPQBorOi9ywl54KGAtxtIPWaUsAQMNVOPITWCgRD4QHiJyg9jG+PHjzeuJtR3vWpgahAGCTugXRIAXglrwEGDgyuDX138M2gCFawhlWSI7IItETTA4ZbB6xhlnWMgY9xz9JkIAzymhUgxGMDZBULlvqd8LMcV67gcb3Mf8zkAHwsv2sbjzO94m/qdBCNkGA3w+s/3+/ftbHh/3vx+cc98yKMLbC1lgcBMUAR4IC88nyDiibjI0Zf1e5J1FlA7Pb8SJeEbHu/Hc5P2AqBn3Atf/oIjBhAigypUr2/94SHm/+MYgm+9Yl3POtcz55trknsEbRd1xCDHGV3J5uY4h7byHWJbrhWscEs2xsg73Cs8LDD7cZxh52Qffc4+2aNHCCDLbg/wTwUB/2QdGWwzZ3IMQAa5D0gtQkWb7RF5wv8bz+YPXDG8bzw+OHY/0McccY/e8N6J5DDXfNwKcK64tcOV6CUvjWU4EDveCj6SL7juEl4kGcec5jtGmU6dO9q4k1YRrCFLMxPuAsR4hzUQR9ejRw6L0ILLcL9x3jBfx8sYjsiO67/H4zDEwFuUcc98UjQhDhWncHg9MtM3UQyBTxBZrHzlzYRpg0VeIJwMbLxBC7Tysd5BXbnwe9jzECD+mEXLMQ4BjxTOGBxcyi4AP06DIIIXvCCcjfIwBOYNrBipY/3jhou4YNmLLIAw8sO4xKAvTeU6lW5YwIsL0KJMRtMEd9wEDZyIXuIf4TGNADBFFsIJBBfcWL1zuK54rkFhexkRSeI9Mx44dHZ4swi+5Rzlu7l0vKMP9xYCFffhwMj/IZs539IHrmnuV7xiwY3Sikc8HIYaAs22MBf43WyDBfzgu7ke82YTOekNGgrsVmt1zvvHYQjK5jhig4glN702N5QH565DyGemvf65nrl3uW/rgl2X/hJvTXybfOOfcH4T/4q0iqqhNhEhyfzAgh+ARseENOhybFz8jpPnNN980Quq9nuwP4w2eLcgr/3NveLIPTlxvpOVwj2LoJKyZ+4/tEf4MAecdSJQE0VC8M3kXxrPxLvXeY8gKzxLeTUF79sUTg1hsm2uL64zwbm9EicV2c2MbPAt5Z3CtRt83Ge2b6xGjDM907h2igkg1YRtcNxhrMNxzHzHO4T2AoRPxTJbhnqhZs6YRYRwbYSS2YMX7EQxItSGnmHsbIxjvYKINMRgVlRJyRpeQvksSBDJFbHkQEEbFADBeIUixxpMHFX098cQTd22agSxeGR5m3Pi8IAm5onkyx0uAgSSDBh6ETL55AszghYcsIY6EebEv1mPQEsa8OCyiDMbIceLloIGDP+PBmXN9QdJ4WRWNvJS4zoJ0nugLfeJ+wLqO9wnCiheJaA+aH2DwkuU32tKlSy1sLFqdknUQcmNwzUsZS70nvazDQJ/1Mzp+vvPfQ17xOBFeH503SAi0b/SJ5Znva+Dk14n3nP7QFzxjeNv88cR7v8myfe4VzieDVAZ2eHHwUuKl90bOWB8r+2O/iKRxffI+4RrleepTeDI6j6wX3dgGBJLG+xYiwvb89c/AHCMNjec22+R+8tv2UQdsl4E6AjuQQ4yvbAOCS447/0Og8XLRZ5ajn0QzgReeMsLgIZdENfh+sj7XJvd3vNraSOgz4c6QFPpIxBRRHzwL/HHGa9/JuF2uKRrGeJ6HYcKQe4h0MsZsPM+9McafJ96HRByQx859QHTDoIgDAoKHAYh7AGOMfyZw7P74ufb5HUMr1xaN31iPey+MjeNBGKtRo0Zm3IPgQ+4ZOyBuh3EDHHH6YGzDMw3hxbDLGFBNCCQDApkitgxUefHxICgaEksPDzIeTtEPKELTuPEhtf5hn/4k8mBjgM7DkMGJf6GzHDl5PGQZPLAdQph9riPbYyDuB/Hptxvk/wl3hPR7C/yesAnyMSR73xjskQ+HdZkX7/SIKIR/QQfh2OkLgwMGzX5gnpl+cb8QQcG95o1CGJYIOWYgTogxg2xexr7xG/dl9HXqP9MPvHX+PuZlzSA8+j4mX5FlMOTQWNev7/eR6Dn9Z6IFrW+JxiYz+4d8YSyBFJGn2qtXL3fxxRdbmGK3bt3sHZCZ7WRlGc4T1/7erv/01y3X8p4a9xPXrze6shz3AWST+4zrg+Nk8i36miE3lePGo8uzo2jk3X377bfbAJflyaklEoLf8eYS3oxhilDn7t2727uOfFww5D3KtjH48p7wucN+v7Gas3/ShXgfESaNmFT09R/9OVb7TJXt+GsjTMfL+wECRpQAocPpyzByvYwcOdLIKYSWSB6IKpENjNXwypJzGt08DtxfGFAxfmE89d8j0uYdHtHrheEzx8A9whiVieNijNqkSRMbsxJ5gScbPRUEszBi8RxgWUK6ifLAq0sEYrSxOQzHrj4KAY/Av29E/00Gcy52Bp2EKflctgwWC9RX9BdrN5YqP6glRAuvKi9N/136TvNgwCqOtwSBKR6oNMKUGQBgESRkC8sheDBYYOKFj4IloW9hajzoUB1s3rx5mLqdUn0lX5CXNdclIbu8jPd0/SYKGD/g9IODzPaDEEpCNN99911bhecL9xhktFatWnYfkt+O8AcNSzwDXh+ey33IvokooWGhJrQSSz8vayzRbJ/nAI1QTJRWybtiH6wLWchqv21j+hN4BDi/hBSSa4pmAoNYBscYKaMJY6wOZG/3JSSV65s8cxrvJ6577y1K3wfII94U3kMMQmmQ2jaRsGS8L9GENnpdjpl+cK3zrODZDgZ4eLlPuNYhDBBIr+SPweyhhx5yFStWNEMTg1qilUjJoR9FI+84DLcQBghwrO8X3q88CxCLwvCA4Q7vOseilroIEHWHYBnXMroMGEF9Q/WXsQvXJMshwMZ1j7EG4xLPd94VvCOi7zF/7ULe8ATzfiCih2scI/9ll11m+/P7CdvcH5/vN8fOuBeij7EYLy0aMUSxYCzg2UJuMeNi8nMZxzL+BR+MWrxP0avh3asmBMKAQKY8toQtENrgS2IQGhX05h9kWKQYFDN4JaQKBUkeYl4OPvohwGcGO8zJb2MQxCAYQswDAC8tohsIgXDDI6RBeA+DAJQqwYVBR5gaYWocF6qBasFDgJczL3SuM0IGscDyXdAafeKe29vAnnsr/UCVUENEaXiZcm9haIF0IOZBWOTaiKcawxp5ugyoEYUifJlt+dx2Ikog/AyGsUYTWULoIn1CdIpQNTxVRJ3wgiackmgLjF+sy3bx5vGihwyrJR8CnGuur5qR8GSuFa43ctH4TLrKnkhiZpHgGcr1H/0+Sb8u1xpEtUePHnbNMaDGaMV16tejH/7+hlCiCUGuK4NthH8wpkJSKfkD4WU9vy774/7zxwJJ5R4hP5W8Op4hhBfzHe+2unXr2jXPtlBghlxiyEUZFhXVrl272vsPwokHi3xfyG4s1cMhFqT2MNEPiDSKtmpCwCPAdYH4GYYYvLeIP3Ed41mtU6eO3cNc81yXGK8Yq3LtUyKIaB8qPkDOuIdovDsgaYzVMBRBhHkHMEZkHMdzAvKXzM2/h3nf+SgT9Gho3JOMdykThkEY4wDvZYwH4IphEOcOzyEMZDz3wN8/d5IZNx1bOBA4IPKS7ZGZrmLBYWDNBc6FjQUoyA0rFA8+VCCxlPPQwkqFkAd95yYkpIoXug9N5mbnhY71Gusd1mxuWgbTDEhQnmRO44GKmAX7wEuEVZycW58LFWRsfN/IvUCkhBcG5EEteAhQ1gPjAy92hFxoGGrwYpJrlz7nKFFHAHGATNaMEAc8yxk17iUG69xfvvwA9yIhwdx7hENyPIRCIurGdyzvI0aw1jO4J/8OazKfuYfr169v9ynhknzmkUa+FQYoDAHc4+QPQpIJt8IgxWCd7TNg51lA6gEDfTy9iW48Y/Fa83yhn2qxQwCvBUZLrh1CF7m38GqCNdci10R2Gtc2gjTkRO/JOMK1jNI3v3OOGUBjcMFTwjXOtcf1j0HHhwFCunnXEKHAYJ7rm1xhCCZ9JS2Be477gP/pB8dDP7jWIdN4ahnMY4wl8oP3IX3g2U+YIt4wSC0DV+47PGA0fuMewliEd5ncdO/ZyQ5G0etgCMCA1bp1a9s3IaU84zgOtfggQPgpz1CuIa6bsDTuS56DXOc8qyGrhOIzluN69NcM33HNc61i4OE6JgoBww/XO/c89wZGHpblfuNZwPsKRwcGJe5HDMncR2FrkHXEGDm/ORFD5F2IcYn3pq8KQigzDiFytIlK5NlJWSWMXby3IcOcGyZv3OZzdp+nYcNe/Q0WAvtFbvpMV+sm7IOXIxZdrF9Bvvmx3NFP8iuyY30DlmS+KckxZKDCA58BBg8htWAhgDUZYwyDP8LzfCMKAeJDGCODZbU9IxDG+5iBGREUEByUytXigwDGTgbGDAYJe8VggkeIgZ1afBCAPOA5xgjMewdyjyEqTEQrPsjEf6sY5tEXAPu95YHHvyfaQzwQwLCLoZbzHO/UMpw9OI/w6OIZJ02B5ymOHYxpEGsMYxiY8epiUOS5GmTOEI9zom0mBoE8WdktnhUsuwy2uVixDAW1cQNhkfNhXVntZzKTWrwFGCjwAGB9E6nN6tUR/+UJyUP4BaMMNfnUsodAMt/H2UNEa3kE8I4ikkQOHyHJeCeY8PQUjUTs6NrxSMVmjsGGEGg8PXiHqU2LV0hNCAiBcCFAJAnqy0w0SDXcAJJLGDNpPdS/ZgyOdxxDCt500vWI1sLLDocgekRNCMQagSwRW3ZOuBCEiNxTLH++BE6sO5bT7RHyhaIjIWZq/yJAfmGXLl3M2oagChY1tWAhQLgYXgwe/tRKlgcpWOdHvUkuBPAskEdGeB11mMlpJe+OvGt5EnN+rgkdxVPIQJewZ0KgSREiWkhNCAiB8CNAODdGeB8dSTgyaXoLFy50ixYtMl0McnYRz+OZCjGG5EJ4SasgZQhjly+NFn5EdASJRCDLxJbO8vInbAviSP4OQi9BG3wTUsak9i8CPGAQzyKMBKs5su5qwUKAklTk+CCANHTo0F25qMHqpXojBJIPgTYRMRnCv8n3JA8bgovwUs1Ibp+8t9k733hv0OaYMWOG6VOQ80iOo5oQEALJiwBRgIhLMSHUR2NMg3gjE3m5KLsTMUh0Jd5bwpghuuT3EjFDTi9aA3r2Ju91Eq8jyxaxRSiG3CSsLpBcQhDuvvtu5W3E6yzlcLtYzwgBIzeThweCKV4EK4eb1uoxRICweQbUU6dOtXI0vBTUhIAQyD0EEIDi3YZgE8Y/xGQQbbvhhhsU/ZOF04CYDBFBhBszaEWUirBFhIDUhIAQSD0EGHsy+fQDUuIofUaEGt5dxB2nRyob+BJoeIEhuIQyMxZizvNZ4cupd+1k9YizRWzZCeQW9VKSxBkIoNCKSl2rVq2UIJ7VsxDH5SkpAaHlgYECICFgPBzUgocAQmdMhPhLpTp450c9Sh0EUMSntAXlP6h5TKk4wpP1ftv3NYAXBuFGFFTx1oCZ3jn7xk1LCIFUQoBqJAhNMdFQSueZsXHjRosEhfRSuYNSTDhmaIQrE8JMySe4B4ryEtA0aPQnCoFsE1u/DWqMYUkhP4n8W2pGEqasMFePUGLmKNQRAobXAYs554b6bkELGU8MOsHbK4NBvBpMPnQneL1Uj4RA6iBAaRDSbFBMpg5mnz59zJuAQrnCaf/3OiDFBU0ASoDgleGdA04YwdWEgBAQAntDAKEpDGDeCEZFA1Kz0IWhpCb5+Xh2KXWIGjM1wMnTZ3meM6QeQnb9+nvbl35LbgRi8sbBgsLLnvAt8pMofE9NSDy6yI+r5S4CI0eONIv51q1bzVrO+VDR+9w9B1nZG+Uvrr32WlNkJW9dTQgIgeAgQA13tAlq1apl0RSE1BKaTJhyUOpIJxotIk0g/scdd5x77LHHLFcZg6qaEBACQiA7CJBbi3GRyfMI6nlTqnL79u1GdiG6pEISkTh48GCr143qMh7datWqGeFFjVkpENk5A+FdJybElsPHckJReC4o1M/IvUWIw4e/8r1a/BD4559/HHWGCQGjphglLPA2kJugmzp+uOd0y+SiUcuR4vF9+/ZVGH9OAdX6QiAOCBDpArFFm4C80X79+pmSMmk4qZw2sGTJEiv/x5wScrxzCBdUCbk4XITapBBIcQTgGUyoKENYzz33XPfbb79ZDV0cOeTpUioRsksKHhVcUFomZJllGWcR+iy1++S+kGJGbD1MXDBNmjQxJckpU6YYweXFj7LkTTfdZIMDqZx5tHI+R2lu2LBhJghF2MZll13mnn/+ebvpCe1QCy4CiHpBahFDwOMhA0Rwz5V6JgRAgHwucm2JTkLhl1ruRFv07NkzpQZLDCYh9f379zdiTx6cPCO6R4SAEMhNBBjjMkFe8dTi2cUASb4u3l1qZ6O+PHfuXNNLQJwT/kGZSzy6pJlUqlTJIhrFS3LzzMV3XzEntnQXay01OCFZjRs3NuENQpSbNWtm8e+tW7e2zwqPzd7JpRYYYiavvfaaJdYz2Lrmmmtc27ZtlV+QPUgTshaGHjwdc+bMsXCbhHRCOxUCQiBLCPB+Q1eC5y+GKVJu3nvvPfMQ8I5L9jZt2jTz0uINITLLG+eS/bh1fEJACAQbAZ7NOAiY8ubNa6kR1CmnlBtkl2cWZS8/+ugj98knn5goFQQYh1zlypWtDi9zcnVRZVYLJwJxIbbRUJCDhMIkE/HwlACg3AzCEghMNW/e3H6jSDMXJVYTWU7+RZAEeiZuPmoCjh071gS6uEGxOIEl4d7K9foXszB8wnL45ptvmhhNsWLFwtBl9VEICIF0CFAKiIgk3mcYbMnzIgQO3Ylka3g/HnnkETtG8oypt01IoJoQEAJCIKgIwCtoRMZRopSJ5zaNcTViVDiKZs+ebREojK1ZFnJbvXp1I7yEL1OqCCE8z1HEUwzCQP6JO7GNPmri3Anf6tWrl8Pqy8CelyPCU1hVUFjmQmI5rC2EGPgLKXo7yfyZXFksS3/++aepwUFmCekGr82bNzuETMhlwiCAMUAtfAigHP7AAw/sCtMP3xGox0JACHgEeFdB+PBc3nbbbfYOo647ETSEyIV9AES9STzSvLc5FozTGFPVhIAQEAJhRoB8Xcq6MXnhTtSXiaKD6E6ePNm99NJL5lw66aSTXJUqVWzZ8uXLWziz5ylwFU+gw4xHsvQ9V4mtB40LgDh4Hws/Y8YM81wNHz7cxI9QQUOkg9h3LCXIdxMWgFeSiYsoGRo5lhBYSvOQs0TyO15tcgI+++wzt2zZMrtZsBwRtkq5HkLg1MKLAOEvPEAZABM+riYEhEByIMDgiBC3Z555xry248aNs/JdiJaEMaIGAyuK7USXYFy96qqrzAgttePkuF51FEJACPwvAvANJl92kbJCOJgguozfeB6izMxzkLE5HIVyQ0TpwF0gyzzvpZnyv9jm1jcJIbbRBwdJ9aHKfA+Zg+hiMcEyjCASpJZ8XEI2uXggdySKk1vKRYRiZZAJL6HE5MVCXpl++eUXhxruhg0bjMii5LZ69WorTA3pJ1QCYg8BIrmdfGW18CPAOcZAQegi9Wpl4Qv/OdURCIH0CNxyyy0mKtW9e3fz2uLJRWAKcaWweG95J40YMcLqoOOpwOhMNJWaEBACQiCVECDqhoovTDSiKuEpqC/jgMLoh4Ar3xctWtSVKlXKnvU870nVYPzONvDuquUOAgkntukPk4uBqUOHDu7vv/+2+HesJViOV65cuaswMzHwxLyT9M3EBXTCCSfYZywpEF4uJEgvE8tDomPt7cXr6kOHveeVuH0mQriot0UIMcXrmeOVZQ6xpS9YeAgpJuafcGxCHDguteRCgLwN6l7ygCNskeszJ40BsiyCOUEwuOtyXmX0CO75yUzPMMAOHTrUUVMc5eBZs2ZZKRwqBlAOJ6iNdxYDNcLvMLzeeOON9i4Oo8c5qBgnsl8HHHCA3huJPAFx3Df3qN4bcQT4/zfNPUT5UibSTWjoDyxcuNCEqRAEpfQmnl64CArMOOVQbOYztb4Z9+OYC4uh8/8PPTSzwBHbaOTIr/UXkP+eFy+er6+//trqtW7cuNEKNWNBITwAoglh9F5c5hBcCAWeXwgFEw8BT3jZDxcrDwX/mf2xLawwfvIk1nteIbI7d+7cRWK5kKN/w0sLOWc/WG0g4F6OHK8zgx9CHnRx+7ObnHOuCbw3GDdeeOGFHOdGEwGAceSDDz5whx9+uOV/JCdyqXdUPIM4t5Tx4jyrhRsBKgMQikx4MjXGP/zwQyO41HjnnROkRpgdZceoQ1+jRg2r1YuRWS15EOAdhOECzxJjE7XkQID3Bs4UIhwZp6rlLgI41ZhwUPHe3rRpk1W8wClHauHbb79t4z94BxpCEF04ANEwOOVwvHEOPQ9hDo9heX7zE0Zv/13uHmG49hZoYpsRlAzk8WoyRTdI7ffff28TXlH+5ybHYwrhhBAzYIRkQEh5qPMAYOJCZPIEk3n0oNJ/5nsuPuZceFxsniBDmgkhxkKDJQYiyxzrDB5Y5vKwRZ+x1PiMUQSPzfTp000oDSn5nDYehFxvAwYMkIU2p2AGcH2eTTwreJ6ohR8B7ldEEuvWrWs1xu+66y4TSqQebhAU0TGiULoI7zLvKSJKEIfiXaeWPAgw8Ka9+uqrNnbx45rkOcLUPRLGpLw3eNYw7lSLDwI4q4i2/OGHH2yCa8AzPNeAd5BqSBSnf37yGQ4A12BdVJi9fg58oUCBArtFknIuaZ5veGcbczgHHCiaZ8A18ACTnkk0EJ9TPex5v8jDLSXcAl6kCVLLxenDhvkM+eCii54DS3oLCv97K4r39kaTW38hx+eW0lbDiADhiJQCIe+O/NpYXCMMRNesWWMW2hS5fcN46rPdZ15oRJVAepSWkG0YA7kihlbC1AYNGmTvHFJuWrZsaZFCiegwfaHGPIOxK6+80gRTGByrJR8CGPZJ58Kzp5Z8CPDeYDxKlAXRgWo5Q4Dw4nXr1rlVq1ZZlCj/k1LGMxze4PkBhBMHF84G79DyUaHe8QXRhJDCH3CKca6YGL/5iNBo/gEfYR8+AtRzFu5d77TDWcfvGDT8umwbwwYEl7EDoc/k/DLHO0xfU6GlDLFNhZOpYwwWAoigQWhRs+7Zs6e9dILVQ/VGCAiBRCAAwXj55ZetLjmqmojJpY9Cime/8Bo8/PDDJtLYsGFD16ZNG1ehQoV47lLbFgJCQAgEEgE8qXhRFy1aZNPaiHge3lhIoyesRLMQRUXkg/eM8hskFuLK3BPaeBFICC9OOQguk0+F5DPHQJ8Jg0YfAa8y30GAIdAYO9DzoWQo7xrSPJPVcC5iG8jbTJ0KOwLkgDNYJIf6ueeeM0te2I9J/RcCQiB2CDAYQVmT8hFffPGFa9eunevSpYtpMsRuL7tvicglPLTk+lNpgLJjKO+jQaEmBISAEEgFBPB0zp8/38qzIewHkcUrCtHDs4n+TZkyZewzhBbi6skr0ZpBbhyHJ72+Agtkd8WKFTZRp5eoPzzGEPWqVauapgJpcnick6GJ2CbDWdQxBAoB8i3at29vOd2DBw+2MJBAdVCdEQJCIDAIYFUfPXq05bbiAejbt6+rU6dOzPtHCb177rnHMbChlFzz5s2Vxx1zlLVBISAEgogAHkyE08aPH29leiB/hOjivcS4B5ElTxWvK+SVMOJYpI4FAQs8tj60meNmjArRRTAQgv/VV1/ZsVKZBX0FSrAGQf8hu9iJ2GYXOa0nBDJAAEvg/fff78aMGWNKeBUrVsxgKX0lBISAEPgXAULesKITHvzWW2+5Sy+91PXp08cGWv8ulb1P/9femcBtOab/+0xJJVSSQkkRyS5lL8LYsm9jLJV9/YUZM2Mb+2hEo+zLmBgZ2ZIIaWwRE5EWUpK0qWiRKIx/x/X73/1eeTMt7/Isx/X53D3Pcy/XclzP83Z/7/O8zhNXNOoi4jE3LLg9E52f9VgWCUhAAoVKgPWozz77bPqbyoM9BGubNm1S8D7ELPEEELAEayy2v4esyyWwFRtrh996660YNGhQioqP8GWtNvEfDjnkkGS5zqfviMI2n2bLvuY0AW5OuXm85JJLUpRR/iBYJCABCSwvAVyFSbfz29/+Nnl8dOvWLU444YTkNra8dWTnsR6LlGAXX3xxWpdFZGby6HIjZ5GABCRQqARwLyb6N9ZZrK4dOnSIY445JrncElEYN9xCscaW1Rzy/wUbFl2suAQWfOaZZ9I63Xbt2gVR/OGYD/9/KGzL6lthPUVNgD8I//rXv5J7H4GicPWzSEACElgZAgQF6d69e/Tq1Sv23HPPZMnFVW55Cm5nRPAkGvvDDz+coh1fccUVyTqxPNd7jgQkIIF8IsDfPDxT+vfvn2IIjBw5Mlgz2rlz52RxNAXSys0mIvell15KDwm4v2UNMrEgfvOb3+T0/ycK25Wbb6+SwE8IjB49Orm3YBEhOItFAhKQwKoS4Mk51luiGBNY6qSTTlpmKg9u7hDETz31VCBkSS+BOMb92CIBCUig0AjgTsva2UceeSQF6cT1+MgjjwzSqLFe1FJ2BCZPnpw8EklVh3ciwVF5cECkZdIY5VJR2ObSbNiXvCTA2jgW3JMY+/nnn8/LMdhpCUggNwmwBuqOO+6Im266Ka2NJQBU27ZtU5CTrMekgMBKccMNN8TLL7+ccmazJCLXI3hm/fdVAhKQwPISwEPu888/j8ceeyz9beRvJELrjDPOSKl4lrcez1txAjw8JSgq2T6wksP9xBNPzCmBq7Bd8Xn1CgksIcAPmzVwJPLGVQNxa5GABCRQ1gRIIfanP/0p3njjjbRerEuXLily5YwZM4Kn6KzvJzcha2krMiduWY/T+iQgAQksiwBW2YEDBybPOKy1J598cpx11lmhu/GyiJXPfh6m9u7dO2699dbUAA8VCHpICqHKLgrbyp4B289bAgR6ufDCC1ME5BdeeCElvs7bwdhxCUggLwjgdkdKIFIDHXjggTFgwICYM2dOykl76qmn5sUY7KQEJCCBFSHAUgvS0yCkiHB80EEHxUUXXRRNmjRZkWo8t4wJ8H8Pc/LAAw+klEnElyEuBJGmK6sobCuLvO3mPQFSaPTo0SMFaCFanEUCEpBARRDASnvllVcmNzyCebCm1hu8iiBvGxKQQEUTII3iQw89FHfeeWdKgUbcgb333ruiu2F7v0AgWwrDwwdiQWBFr1+//i9cUX6HFLblx9aaC5gALhj8cSU4C64wFglIQAIVSWDMmDGx1157Jdfk5s2bV2TTtiUBCUigQgjgbkzaM9yPjzrqqOSZ4pKvCkG/wo2w1pllMT179owWLVqkmA+bbbbZCtezqhestqoVeL0Eio0ASawJzIIbMk+mLBKQgAQqmgCRKcnFyFoniwQkIIFCI0CAqK5duwZLvfBQIcaAojZ3Z5noyKeddlrcfffdMXv27BRY6r333ksdxpW8oorCtqJI205BEBg1alTKUcsi+XPPPTcl+i6IgTkICUggrwgQGZRSkTcMeQXIzkpAAnlLAGF03nnnBfdcRIU/+uij04O8vB1QEXV8l112ibvuuisFkiLIIW7KVapUqTACCtsKQ21D+U6AtD6nn356tGzZMki5QZ5IiwQkIAEJSEACEpBA2RDAG4V7LPJ433///bHbbruVTcXWUmEEcEEmyGGzZs2SFXfKlCkV1rbCtsJQ21A+E1i4cGFyiWEM11xzTU6ENM9nnvZdAhKQgAQkIAEJLE2AdZqPPvpo3HPPPbHDDjssfdjPeUKgadOm6X4ZF2WW71WUd5HCNk++IHazcgmwvuPdd98NIiG3atWqcjtj6xKQgAQkIAEJSKDACHz66adx6aWXxsUXX5yC4xXY8IpuOHg4ImrffPPNePDBBytk/ArbCsFsI/lM4L777kuh5kmpQX4uiwQkIAEJSEACEpBA2RLAfbVhw4Yp60TZ1rxiteGlhxv0ddddF7hGl2fBkklE4SxuwtSpU1O6nJdffrk8m62wunffffeUdxhL/KxZs8q9XYVtuSO2gXwmMHjw4BRqnrW1xxxzTIUugM9nbvZdAhKQgAQkIAEJLC8B4pg8/PDD8fvf/z6qVq26vJeVy3kIzeeffz769u0bP/zwQ7m0kVU6f/782HnnnePGG29MuwicBYdx48Zlp+T1K/FoDjvssJg3b16KcF3eg6lW3g1YvwTylQCR3C677LIgwtv5558frBOwSEACEpCABCQgAQmULQHS+qyxxhpxyCGHlG3FK1lb9erVU3+yy7GofvPNN7FgwYK0v1atWlGt2v/JKI5j6f3qq6+Ca2vXrr3kOFZZUrNxLRGCa9asGTVq1EjvqXPSpElBgCWux30Xl2zOyQpW46+//joWLVoUtMsx0r1RqJd+0D71s5/juXTPuvnmm8cWW2wRr7/+evz6178uVyORFtvsW1MAr/xw2PhyZ1u2rwCGV6FDmDx5clx11VXpjxfBotZee+0Kbd/GJCABCUhAAhKQQLEQ+Ne//pWCRSEIc6kgRLmnfvbZZ+OII46I7bbbLllYcZueOXNm6ir32v3794/9998/tt122xTJ+eabb16SZ/ydd95JeV132mmnYOvUqVOQ4xUR/D//8z8xZ86ceOKJJ+IPf/hDqvOUU06JV199NdVNPt9u3brFrrvumtqmD1iTsSQjis8444zo2bNnsnTj9tuuXbug7fK2NK/IHNWvXz+IlPzZZ58tYbYi16/Iuf/3qGFFrvLcciXADwQ3iGzjCU32nqc2PNHhc/bKl5eNfRxn40fIUxue2PAkhw3XDjaeJGVPonjNjmf7uSa7riJzT5Ur1BWofO7cudGjR4/48MMP44EHHogmTZqswNWeKgEJSEACEpCABCSwIgSwUm6//fYrckm5n8s9MPfIgwYNSmlrEGekIsKjj7grCNJrr702Xl68Hvaoo45KHn4cf/vtt1PQpDXXXDOOO+645P338ccfJxHL/flNN92U9t15553Rpk2bGDBgQGy88cZJ2H/xxRfx+OOPJ4Havn376N69e/Tq1Su136JFixSECWH8yCOPROvWreONN95I96oI39/85jfx0ksvJYG86aabxpFHHlnujJanAbQHa6fRLbhaN2jQYHkuW6lzFLYrha1sLsJ9ANcCNp7aIKj4QjPpvLLxo2E/vum4GHANGyIWMYuIRQjz40PIZhuf2Z9ZbrNXjmdClldcIXBZ4MeHVXKdddaJOnXqxLrrrpu2evXqBRv7eYrGeWy4ixRi4SECAQMee+yx9IfEUPOFOMuOSQISkIAEJCCBXCLAfW1J99tc6BuCjPtvhCb3xdwfNm/ePHWN/mL8OOecc5KFlOP9+vVL5yHguFfH+4/79K222iqd17Fjx3TPT5aNt956K93LX3DBBUnodujQIU488cQkmnE3Zps4cWIKXnrqqaeme1Ia3m+//eLAAw9MYph6MURhJR44cGC6j8fVl+wdRCLOFWFLv+lnZrjjc3kVhW15kV2qXsQrQhW3BSKe8WXHJI+LQSZcEbf8ULCcstiaDbG5/vrrJ5973iMus43jiMzMuopQ5UfIKwIWMZtZcHlFCCPcWKhOW7yy0Td+uEQrQ0jTt+wY52f9of26deumpy6NGzdOuVwbNWoU6623Xvoh59ofpKWmYLk+8kfpr3/9a1x00UU5s85juTruSRKQgAQkIAEJSCBPCWBU4f44lwr30hibCOSEoaPp4tysWSHgE5bWDz74IHn48RlxS8H4Q3ob7um5T0ew4qpMfl7ut7Gycu9M/dyPc7+OWzGlpKck6265D2+/2HKbFYQ11tgJEyYkgxciet99903tcA4aAdffrL7susp+ReugT+hfeRaFbTnR/fLLL9OTFn4M48ePTwvBZ8yYkUQkT3GYXMzymOM32WST2GCDDdJnhCL7+IHzY6iswg+NHzNCfNq0aUs2PuOii+8/QhmLL19SxsIPHjcNfnS4VDCGfCpDhgxJriNEPyZYlEUCEpCABCQgAQlIoPwJ4IaMUMy1knlHYkRCiGaFe3kKVkjeIyZLFu6dOTZq1Kg4++yzk0AlZWTbtm3T+Yh4jmdCtmTd1MN+hDHnYGDKCvvY0BHZtQhpxDHGLc6nZMey6yrzFY9TXM3x/kTQl2dR2JYRXZ6o4HOPewGvExe7D/BUJrN2Ilzxf88snRtttFEgYnPVyplZjEtbX4o1lx8kT5LYsDzzitsD6XGwDmPd5YnS1ltvndZM4BbBDy5XC2L93HPPTesjCBplkYAEJCABCUhAAhKoGAK41+IxhxDExbayC8IQkYgY4154xIgRyaOR+3jKa6+9lpbqcZ/L/e7QoUOTtyPGHkRtly5dkojF2INVt0+fPnH44Yena1mzi2BGkNJGtlyQg5kw5T1GIwQvFt4sWvTo0aPjo48+Smtwl2X9zCVRyzjQCfR7r732KnejncIW4itZeEKDlY8vNwvFEXsIOiyXPJEhvDXvEbA8ySn5xGUlm8yJy/ghsYCdLSuwyNysEfVjx45Nll3WEOAOseGGG6ZIcERrI30OT5pypWBdJ6occ3TLLbfk7MOGXOFlPyQgAQlIQAISkEBZEiAQ0pZbbpnE7b333luWVa9wXYhLjDjcH7IEjzysrKU966yz4qCDDorhw4enKMmXX3558rgksjGBm9i4z8XIQ2qb8847L4lXhOZDDz2UrJbDhg1L2gErJimOCC5FG+TMRdATNZljLBNEFB988MFxxx13JPGLqP7HP/6R7lMPOOCAtBRSvCjPAABAAElEQVQR70rOzwoimX1cnysFncRyR9YHl3epeuXiUt6NFFr9PDm59dZb4+qrr07hufFvx/f++OOPjxNOOCGFA99nn33SFxRLLdbPXLZWlsX8IFR5qoUlmh8m1mlcLtjIyYUVF4suP0gCM33yySfJVRnRX5mFPwAnn3xy+mNDhLnK7k9lsrBtCUggfwhMnz493SiddNJJ5RphMn+I2FMJSCCfCXCfjJsq99asGcUgUlkFYcuaUO5pCeqEwOQ9Vls0AMv1Tj/99GSVzYw9zZo1i/fffz+l8WHfZZddloI3YTTBO5N7YCIjky6IAE/cF2Pw2mOPPdL9M8YxlvftvffeKf4OOgIDGRZh7lVfeeWV5BHK8kXqJrUP/eT/Au65OQ/rLpZgRCRrfnMhyjT3+8wpBj/SGJV3qbIYyv86Y5d3S3leP4GfHn744RReG4skrrV8+fhC4qLA0xYimFlKJ8CTI54g8aPmyQ1Pqfiyk7CZBwLHHntspfAjSBRim5xg/LGxSEACEsgHAuRA5Ik9Lm254LaXD8zsowQkkNsE8P7r3LlzcrXFI7KylushjbhvRSTiiYnFlXWtCEb240KMCEeIZgWhynG8FNEDBJLKvBO5hmPUy37GhTWYehG+WRoc1vGSiYT7ZeLsZPUjpLkegYsRiXMQsdRH0Ff6k2kQzkGUI5orM1YPXGBx6aWXphREGLV4QFDeRWH7XwgTdey2225Lkcz4IuIff+ihh6YgSVhi+TJZVowAf7hw8eDJ1lNPPZXCo/OkDoGLm0dFPaW7/fbb4+KLL04WZJJqWyQgAQnkCwGFbb7MlP2UgARWhABGD9bbYm1kXaolPwkgsO+5557AMRgddcQRR1TIQBS2y8CMZZGkyITmxr0AlwP83LMnMLm2MHsZw8jp3Txp4gkYa3MRuKwhwBWDsOi//e1vk9tHeQ0ACy0L8VlTy/pa57O8SFuvBCRQHgQUtuVB1TolIIHKJsC9IYGYyMFKlgru0yz5R4DlfUSDZh1y165dK2wA/xe3usKazO2GcDn+4x//mHzBWRx+9913x8svvxwkRyY6GW4CiqCymUM44iqBhZYvP4Gm+AP2r3/9K7kFE52Y+SjrMmbMmLSulpQ+zKvzWdaErU8CEpCABCQgAQmsOAHuyVgf2rt37/jnP/8ZZ555ZkqPs+I1eUVlEODBxH333ZcMghipKlLUMl6F7f+fdSKKEbGMaGT4gffo0SOtBcV0nvmtV8YXpJjahDPBt4gYd/3116c/akSXe/LJJ1P+r7JgwRoFXJ5ZaM9i9mz9Q1nUbR0SkIAEJCABCUhAAqtGgPWjRNDlvnzgwIHp3nDSpEmrVqlXlzsBUp8S2Ipo0Ndee20yFJZ7o0s1UPTCloXh48aNS5HNsOARqQxLLe6whZKeZ6k5z/mPrFvG9RuByx821t2SY3b8+PGr1HcWsZ922mnJ6t6rV69KC0qwSoPwYglIQAISkIAEJFAEBIgM3K9fv5gyZUpKuUPgUZawWXKLAIGziJvD2ui//e1vaRkn4rYySlELW4IYYQ0kcBA/mhdffDGuu+66lJ6nMibDNn9KgPXMN998cwoewMMGHjqwNnZl/qjhGsFTJBJE33XXXRUWoOqnI/KTBCQgAQlIQAISkMDyEiCI1IABA6JNmzbJCHXJJZfEhx9+mCIWL28dnlc+BAgQ9fnnn0fPnj1T3BoMU6RDItdvZZWiFbbz5s2LG2+8MUiqzAJ1RG0u5HuqrC9CLrdLWiUELfPDWgsSdxM6fUUKPzoeYvz5z39OOYdX5FrPlYAEJCABCUhAAhKoHAIYOu68885k7CDuTadOndK9IBGULZVDAEHbt2/flK6T4K+kz3zmmWeCPLuVWapVZuOV1TY5n0jzgksDkY+xBFpymwB/1AjkhQWX9beslb3wwguXK0fX448/HqT2Oeecc1Kqptweqb2TgAQkIAEJSEACEliaAFGSib1C+hiE7hNPPJGMU+zbfPPNlz7dz+VA4LPPPotXX301xSP66KOPAuMTBqdNN920HFpb8SqLLt0Plj78vl9//fWUXoYJseQXgQcffDD+8Ic/JOstLinkwF1WwSWCtdO77757cjOv7GTVy+qn+yUgAQmsCAHT/awILc+VgAQKjcDIkSNTkNEhQ4YkIwf383vttVfsuOOOgUuspewIsJwP3mQtGTRoUHI/JtguAV932223smuoDGoqOostkXBfe+21ZP3jB2DJPwIE9kLMIlgbNWqUUvaUNgqCTV1xxRWx8cYbJyGsqC2NkvskIAEJSEACEpBAfhHYeuutk9fliBEj4umnn45XXnkl+vfvH1tuuWV06NAh9thjj3T/l1+jyq3e4h3JgwME7TvvvJPuvckqglFpl112CaJX51opKmFLPqyHH344/RAUtbn2VVyx/pCyh4Bf5Bzm6dzS66O//PLLuPLKK1OaoGuuuSblIF6xFjxbAhKQgAQkIAEJSCCXCWy77bbBNmHChHjzzTdj8ODByVUZd+Uddtghucoichs0aJDLw8iZvuHZircjHP/973/H3Llzo0WLFsk6u+eee0bLli1zUtBmAIvGFXn69OlxwAEHpPQxf/rTnwomNy3rhXmi0qxZs3L9opGbioXiderUKTVqNJHRJk+enFIkNWzYMPt+lesr0ZEPP/zwIAcxT5OyQrTrq666Kj25Y20tay8sEpCABAqJgK7IhTSbjkUCEigrArNnz07pIRFlWBvHjBkT1apVi2222Sbat2+f7gmbNm1aVs0VRD0zZsxIrF566aVkmUVbbLbZZskqi4WW9cvrr79+Xoy1aITtDTfcEAQR+vvf/x6tWrXKi8lZnk5igSbSL19GAiytbCEHFW4cuPjyw1+6vP322ym3LEG3jj766J+tayVH7Kmnnpq++AR4qqgyatSo2HnnneORRx5J4cXJS3zfffelxNDdunUzMFhFTYTtSEACFUpAYVuhuG1MAhLIMwLcD37xxRdBsCPcaImt8+6776asGghb7h1ZH8prvXr18mx0q9bd+fPnJxYszYTLxx9/HKyjRfzjYgwTlvHVr18/79YrF4UrMql9Bg4cGAcffHCybK7a1yG3ruapytixY1cqt2vJkSBs//rXvyarb2nCdr311kvWUSzDVapUKXlpes8P4tNPP13lfvys4v+yY6uttoqOHTumqMfkzUKcY60ljZPRrv8LPA9LQAISkIAEJCCBAiSAoQb3YzYE27HHHhssU8OCO3To0ORu27t373RP26RJk2jdunVyXWZp2xZbbJE8EAsBC/f33J8j6hH4w4YNS0IW70ZS87Rt2zY6d+6cGCFkiUeTz8G3ikLYDh8+PHg6wZOZmjVrVsj3dObMmfHVV19F3bp1k486brz4+Gf5nXDt5Yk7Px7ycPG05LDDDkvCkoXwuFCsvfbaaW0AorJkef/999P5PFHhy8fibcRmJnLxf+daxObEiRPT06nmzZsvGTuJrXlCwzUssOepDG3yVGv11VdPkc9YfF8y2jB9IMw6bsbZYnFcgPHDxw2Zda41atRYcqxkf8v7PQIWazFjIqUPDzCwLFskIAEJSEACEpCABIqbAPe266yzTtq45913331TDBaW8hHtF7HHffeTTz6Z7pm5t2662KqLIMaAwr066WwIWJqrog8Bi/YYN25ckIZn9OjR6d6eQKpoIO7RcS9u06ZN8sBkXXI2Hly1S97z5/O3pSiE7QcffJCEXkWt/URQDhgwIEXk5cnHtGnTksjlR0XeLVx52YeQJaobVkZ+NPzQsjyt/AgXLlyYLMxYUlkfjBju2rVr/H2xOzXisnr16tG4ceP0dIUvJe7ICDyiwiHiWYPKtfxoyQHLj7Jnz55x5eKgSjyp4UdQq1ateOihh1IOKsQthWjD/fr1S38Asi83dRx33HHp2pNPPjnViaDkx8PDAgQ8495oo42ySyrslT88iGsCSiHIe/XqVWFt25AEJCABCUhAAhKQQH4QyO6fuYeuXbt2Mu7g8cc9LAYb4sWwzI37XgxjL774YrL0chxxiJZA9HK/u8EGG8SGG264ZMMIRL3ck7NxL78qBXdq7tW5n0cDsH546tSpKXgq/czeYyDjPYGfMFqttdZagUGL4FlYY1mCiWGN8SJgOYetEEtRCFt87JlkRFxFFr50WEQfe+yx9AXv1KlT/O53v0tPS/jC8yUl6BFrZPfff/8kTK+99tq48MILg7RECPIzzzwzvUcAE86c9aNZDleeLpFDih8aBXHHD4DXrGQ/CH5ouF5cd911SUDfdNNN6RQWhdMnRDEWX364Tz31VHoQkNXBK3UitCmcQ7/g+vzzz6dF5Yzh1ltvTeNMJ1XgP/wh4Y8HDxEQ/YzVIgEJSEACEpCABCQggV8iUFLkoRXwemTDCEVBXHJ/PGnSpORhmVlE8X7EMMW9MPfHnJeJX+7LMfogJPGgRH9wn8qWCd5M9CJa2bL7dV6JW4PXJxvv2WiDe3GEOVZj1gVz/4uBiyV5CFmWCzZdLLpxKaadYizFOeoKmGlEK1+6M844I7kx0CSWUMQtPwqenvAlPeWUU+K3v/1teo/Y5InKpZdemr602223XXIXIIozbhJYYkmITD0Eijr00EOjS5cuSewua0jZD5YfAVZYfhzkn8osq/fee29y4eVHyMaPkh9haYVj/FB5gsWGNThLm3T99dcn4Y0luDIKfyAuuOCCvInaVhmMbFMCEpCABCQgAQlIYPkJYOHknptt6dSS1MK9MZZUIgsjckmPQ2wfNgQxx3AFRhdkG5ZhxCzXYozhHjYTv3zmPZ6QZCLhnjzb6ANrhtEXxSpc/9vMFYWw5YvAUw++SBVVeKrCl69keGxcgXl6w5ecLzMli9DMl33i4vWwPGkpKSz58mKJZA0ubgYs8i75ZcYNl6dEJUtJ9wLayT6zzhcXCurMyn777ZdSIOG+wFOibP1sdnzpV45nQaLwz8/q54fPkyJ+qBVdWFPAQ4KMZUW3b3sSkIAEJCABCUhAAsVHgHts7qtL3lsXH4XcGfFqudOV8usJ61d5gkIu24oqfNER0iXFNIIW8Yi4zUrmNsz5WFVLns85RHBD9OJugLWUpz8lC2MqKUYRmploRmTyxChro6QgzupgcTkRo+kXpWRd2Tm8ZuKY91h2+Uzfsv20wefKWHxOMC3EPXm2LBKQgAQkIAEJSEACEpBA8REoCmHL4mn85omaiytuRRREJBbWV199NYlRBCY5Z7G+YrlFfCIGMxGK6wG5o1isjtBEzE6ZMiWee+65FMQJSy2uyeScIlw3AhjLKflbcWGgHlwXsLwS0pvjrJtlXS1ileNEQkMIsxAegcz73/zmN8m1GYGKKKWfS4treHE9G/0iQhxC+/777099xBr+wgsvpAhslbG+Fa6MDcu8RQISkIAEJCABCUhAAhIoPgJF4YpMNOIDDzwwHn300bQYnMi55V0QiQhKRBcuxgjOLB1N08XuxrgFI2wziyeCkKjDiNrzzjsvRUHmOqyRpK7B6nzaaaelcOTkaN1zzz2TezJW4Ey4cg5Bpm688cZ4880300J32mFBOYKeKMaDBw9OwaiGDBmyJJoaa3uxInP9bbfdFgSwYl1vyZDmWT9ZQ0u+L/pAwKizzjorLVxHcGeRkcubbcn6eRDwzDPPRJ8+fUru9r0EJCABCUhAAhKQgAQkUEQEql65uBTDeLGS/uMf/0guyQQ8Km+XWYI9ZSlysBZj7STkNqIVwYhbMVHLiJqM9ZPC53bt2qVzs/WwnE/kYwphxcldy3pSLK4EkuI462zJkYt/P8exFtMeYv6kk05K+xC8iFfGjtUYt2HW2yKajzzyyCSwyW/FMdYFky6oZMEaTL4r2sEyuvvuuyeBy/pW2iPxNfWQzxYhXRGFMXZaHIwLLlddddUy3agroi+2IQEJSKAiCeBxQ6o2/sYTz8EiAQlIQAISKHYCVRaLg/+NYlQEJPr27Zsi5/bo0SOOOeaYchsxSO+444645ZZbksWWta7cgGQWUNazYgHlM++z9a3sw3KLuy8R1DiO0GT9aMlrsL6yYYlGVGL55RoK19MenxHPHOd69tGvzFUY92HeI1izEOKZIKY+SsmvBlZhXJ7pB/VxLhsCm2P0JXOtbt269ZIw6amicvqnW7du0b179xg0aFBy0y6nZqxWAhKQQM4ReO+995JnD3//WB5ikYAEJCABCRQ7gaJwRc4mGTHL+lPytmKVxDpaXgXxh9suAhThx+dZs2YtcT2mXYRsSfGY9YXzsShzPS7MSxeOcS1hxbl+6Xq4no21sqUd53zqyIJLlayf6yiZuC15bOl2snoQu1gPKOyriJQ/PCj4y1/+ErhRs/bYIgEJSEACEpCABCQgAQkUL4GiErZM85WLPa8RmJ0Wu7A+8MADybW2rKcfcbfPPvsk113ccnERzgJGcazQC5bi8iysW+7atWtyo2bdsEUCEpCABCQgAQlIQAISKG4CRSdsce/t2bNnEkasCb3zzjvjiCOOKPNvAalnWLOaWVezdbRl3lCRVcjcXX311XHRRRfFOeecs8S9u8gwOFwJSKDICWQPSbPXIsfh8CUgAQlIQAJRdMKWOceiSPRfgicRifjyyy9PW1l+HzJ34LKss5jrYs0xga4ee+yxuO6661JALdYfWyQgAQkUIwFiJCBqiX1gkYAEJCABCUhg8ZLIxWswiyZ4VGkTTgqgs88+O6XJufvuu5PLcGnnua/yCAwfPjxFf54xY0aytu+7774pcFXl9ciWJSCBXCPw0UcfJU8c4hJksQVyrY9l1R88gUj1RgAp8rQT8b4YCh5Xv//971M2gWIYr2OUgAQkIIEVI1CUFtuSiI4++uiULod8rLvssktcdtllcfrppyerbsnzfF/xBAiOhWWd6NKkKSJgVNPFOYAtEpCABJYmwN+L559/PuXWJq5BFkl+6fMK4TPCHXF7+OGHpwj4hfx8mrERgZ8UdXjsjB8/XmFbCF9ixyABCUigHAgUvbCFKethBw8eHLfffntcf/318cgjj8Sll14ae++9d1rDmUUKLgf+VrkUAaIxz507N6XwueGGG1I6oRtvvDHlauTmxiIBCUigNAL8nSaWATmtybVtKSwC5HYfN25cqRH7C2ukjkYCEpCABFaWwP/mdlnZqwvoOtYqEYzo9ddfj1atWkWXLl3i2GOPjeeeey5FUSZdj6X8CJB6aNq0adGvX7/E/YILLog999wzhg4dmuZCUVt+7K1ZAoVCgAdjrMe3FB4BUufx/4TBsgpvbh2RBCQggbIioAlsKZK4ut5zzz3JHblHjx5p/S1CF5dlXJU32mijMGjRUtBW4eO8efNiypQp8corr0Tfvn1j4sSJyc0M9nC3SEACEpCABBS0fgckIAEJSOC/EVDYLoPQTjvtFH369Ilhw4bF/fffHzfffHOstdZayYrYrl272GKLLaJx48ZpndMyqnD3MggsWrQoJk2aFB9++GG8+OKLyUrOk3hy//bq1UtBuwxu7paABCQgAQlIQAISkIAESiegsC2dy5K9CFy2jz/+OPr375/Wfg4aNCjWX3/9aNu2bbRu3Tqt0d1kk03CtbhLsP3sDWIWa+zo0aPTw4J33nknCPay4YYbximnnBIHH3xwsob/7EJ3SEACEpCABCQgAQlIQAIS+C8EFLb/BVB2uHnz5sG6z1NPPTUJM1xnsea+8MILKYIybrPbbLNNShtEMKq11147u7RoX0lH8cEHH8T777+fNtJxLFiwID0UaN++fbJ+77jjjlGjRo2iZeTAJSABCUhAAhKQgAQkIIFVJ6CwXUGGuCMTLZlt+vTpyQL57rvvxogRI+LBBx+Mb7/9Nho0aBCbbbZZErkIXoQu1xV6mTNnThKyo0aNSlyIYEmKhpo1a6Y0PR07doztt98+ttxyy6hfv36h43B8EpCABCQgAQlIQAISkEAFEVDYrgLohg0bBluHDh2SW+1nn32WXJZxt2X96FtvvRVfffVVrLPOOsnNFrGLyGV9bosWLfI6CBUpebDAMk5e2aZOnRoEg2K8BOHaddddY6uttgqs3QTdqlOnzirQ9lIJSEACEpCABCQgAQlIQAKlE1DYls5lhfeSN5Ftu+22S+tFccOdNWtWTJ48OcaOHZuSyg8fPjylsyFtQa1atZJL7sYbbxxsrNFFACIIycWYCxEgv//++5g5c2Z88sknMWHChPTKOlkCPzG2r7/+OlmiszEQVAvhvsEGGyQWCNnq1auvMEsvkIAEJCABCUhAAhKQgAQksCIEFLYrQms5z11jjTWSJRdrLhZL3JYRs2xYcEk0j4UTsYiVl3W67EMokq8V112snghl6iBQFa+477Kf9bvZKy7OtFe1atUkhglglQWx+vHHHyPbyO9ILl5cpekDFlesq7yyIVTJI0s/2AjsxHH6zLWkOEKwEgmatEdYn9noE32gz2yrr776clLyNAlIQAISkIAEJCABCUhAAmVDQGFbNhx/sRaslmyIUQQqgnDnnXcOLKJspLpBQLJGFWsoAhNLKQKTdbxvvPFGEprz589PwZcQq0sXxCzili0Tt5mYRdCyZSW7nlfOx3pcu3btJFIRr4hxrMZsRC3Gjbhu3bpJQCO8S25Znb5KQAISkIAEJCABCUhAAhKoLAIK20oin4nDrHmEI6KyZcuWS6ysJa2tCGDEKa9YdrG6InTZEMbZlgllzqUNLKhZW7xi3cX6itUXSyuiFnGbnYMLdGlb1k9fJSABCUhAAhKQgAQkIAEJ5BoBhW2OzUgmKpfuFoI0K/Xq1cve+ioBCUhAAhKQgAQkIAEJSKDoCaxW9AQEIAEJSEACEpCABCQgAQlIQAJ5TUBhm9fTZ+clIAEJSEACEpCABCQgAQlIQGHrd0ACEpCABCQgAQlIQAISkIAE8pqAwjavp8/OS0ACEpCABCQgAQlIQAISkIDBo/wOSEACEpCABFaRAKnZ3nnnnRg3blyKbE+atO233z423XTTVazZyyUgAQlIQAISWB4CCtvloeQ5EpCABCQggWUQ+OCDD+LSSy+Nl19+OeX8Jo0aKdkQt5dffnn86le/WsaVy7eb1G9PP/10ymN+0EEHpVRty3elZ0lAAhKQgASKh4CuyMUz145UAhKQgATKmMA333wT559/fjzzzDNx0UUXRZ8+fdJ29dVXx5w5c+LCCy9MltxVaZY0cI899ljcd999QXsVWRDVFglIQAISkEA+ENBimw+zZB8lIAEJSCAnCTz55JPx4osvxhVXXJGstlknt95662RZReCOHz8+1ltvvWR13WeffWLzzTdPp7311lvJynvuuefGmmuuGSNHjowHHnggJk6cGBtvvHEcc8wx0aZNm+jfv3+8+eab8fXXX8ftt98e5513Xqy77rpp/7PPPhtffvllbLPNNtGpU6dkJZ4/f34MGDAgfvjhh+QW/cILL0Tz5s3j+OOPj08++SToM7nRjzzyyNhjjz2yLsewYcPi8ccfj8mTJ6f6OB+rMwKdOmrXrh2fffZZOk4fGjRosORa30hAAhKQgAQqm4DCtrJnwPYlIAEJSCBvCQwaNCiqV68eZ5xxxs/GsP/++8cWW2wRjRs3Ds7r1q1bNGrUaImwHTJkSFx11VVx6qmnJnF64oknRtWqVaN169YxdOjQZAXu3r17LFy4MIlaXhGxq6++etx6662BaN5pp52SaL7rrrti4MCB8eijj6bjf/vb35JQpf211147CWisvlxLH8aMGRNPPfVUEttbbbVVEq70o2HDhmldMPW9vNi1+o477ohq1aolK/Trr7+e3u+8885JNP9swO6QgAQkIAEJVCIBXZErEb5NS0ACEpBAfhP48MMPk1WzNOtlzZo1o2XLlsnS+d133yWB+p///GfJgL///vvkWowwRkSOGDEiLrnkkkBUYpnF6vvpp5/GUUcdlSyrCFCsu1OmTAkEL8IZ4dmjR49AyL733nvRs2fPqFGjRhLCa621VlxzzTXRt2/fOPjgg2PUqFFx0kknxYMPPpiupx4CXtEP3KgRwQhwXJ7vueeedD71Yt3FCrzaaqvFjTfemNosbbxLBuYbCUhAAhKQQCUQ0GJbCdBtUgISkIAECoMAghWL5n8rrJPFGstrVhCKfEbsbrLJJmn3xRdfHO+//360a9cuidt69eold2IsrWy4ION+PHXq1GTpbdKkSbpur732il133TW5RV922WWp3hYtWgSuzxRcoYnQzDnU2apVqySAv/322xTJGdGLOzNWX8b0xRdfpHaHDx8ec+fOTX3cb7/9guBVdevWTXX6jwQkIAEJSCCXCGixzaXZsC8SkIAEJJBXBJo2bZrWnBIFeenC2lrWvRJQCitqSVHLuVhKKYjL3XbbLYlKBO5f/vKX6NChQ+y7777JkosAzoI4Ucfnn3+eRC5uw1nhHFyOWQ/L2lpEdJ06dbLD6XrW8WIdpmT1IconTZqU9r366qvJwnv99dfH3XffndYIsx540aJF6Tj1Y721SEACEpCABHKRgMI2F2fFPklAAhKQQF4QQIAuWLAg7r333p/0Fyvs4MGD46GHHkpCEwGJkM0EJScTpAmhyjECRxGciUBUCM3evXvH7Nmz469//WsSvpyTCWMsrqy3nTVr1pL6qPejjz6KZs2aJVHL5+z8rGPsK9k+++kTa24pBMAaPXp02nBRRtwSQAqX5kyEL319utB/JCABCUhAAjlAQGGbA5NgFyQgAQlIID8J/PrXvw5cfgkCxdpUrKlsDz/8cFovi0sx7ru4ESMKiTyMIH3ttddSdGLEJ2txCfpEhGJcf+vXr5/eUy8CmXO4HqE7Y8aM2GWXXVKQp1tuuSV9RuSybhZRevTRRydXYq4rKUJ5X/JzRhu3Y9YB46aMkJ05c2ay0D733HNx6KGHRr9+/ZK1ubRrszp8lYAEJCABCeQCAYVtLsyCfZCABCQggbwkgLsvopTATmeddVZ6JaoxEY633XbbuPnmm9Oa1u233z4OOOCAFM24bdu2SYCyVhVRiyvyKaeckqytrGMlKNSvfvWrZIHFlRn3X9a/EsmY4FEIX4JMYd3FYty+ffvUNumBunTpkqy5WHjZsoJrckmrL/vXWWedJaKZKMsEqtpxxx3TutzOnTun9bik9SF3Lq7UuiFnNH2VgAQkIIFcJFBl8VNYs6/n4szYJwlIQAISWG4C5ITt2LFjsoiSA7aiC+L06aefTlZT/lsl/ywWWNal8hmrKxZXxOjYsWMDcbvZZpul9whTROOECRPin//8Z3plDFh6d9hhhzSUefPmxUsvvZREJqIXUUxKICyrtE19hx12WIpcjAUXyy91Ztfjpoy1F4FMn4hyTLohrLUEoKJ/nPPEE0/E9OnTUxqhQw45JLkh42pNxGWEMJGTEckVXRDdiG3E+5lnnlnRzdueBCQgAQnkAQGFbR5Mkl2UgAQkIIFfJlDZwvaXe+fRVSWgsF1Vgl4vAQlIoPAJ6Ipc+HPsCCUgAQlIQAISkIAEJCABCRQ0AYVtQU+vg5OABCQgAQlIQAISkIAEJFD4BBS2hT/HjlACEpCABCQgAQlIQAISkEBBE1DYFvT0OjgJSEACEpCABCQgAQlIQAKFT0BhW/hz7AglIAEJSEACEpCABCQgAQkUNAGFbUFPr4OTgAQkIAEJSEACEpCABCRQ+AQUtoU/x45QAhKQgAQkIAEJSEACEpBAQRNQ2Bb09Do4CUhAAhKQgAQkIAEJSEAChU9AYVv4c+wIJSABCUhAAhKQgAQkIAEJFDQBhW1BT6+Dk4AEJCABCUhAAhKQgAQkUPgEFLaFP8eOUAISkIAEJCABCUhAAhKQQEETUNgW9PQ6OAlIQAISkIAEJCABCUhAAoVPQGFb+HPsCCUgAQlIQAISkIAEJCABCRQ0AYVtQU+vg5OABCQgAQnkP4Eff/wx/wfhCCQgAQlIoFwJKGzLFa+VS0ACEpBARRFYbbXVonbt2hXVnO1UIIE111wzVl999VDgViB0m5KABCSQZwSq5Vl/7a4EJCABCUjgZwT+85//xJdffhlPPPFE1K9fP3744YefnVMoOxB3iPgaNWrEwoULg7EXcqlatWrMmDEjJkyYoLAt5Il2bBKQgARWkYDCdhUBerkEJCABCVQ+ASx6zZs3j969e0e1atUKWgAhar/55puYNm1aNGrUKAncQrZkVqlSJb7//vuoXr16NGzYsPK/bPZAAhKQgARykkCVxf8ZunAlJ6fGTklAAhKQwPISWLBgQYwbNy4WLVqURC1iqFALwn3MmDFx9tlnx9133x3NmjUr1KGmcXGbwnwy7qZNm0bdunULerwOTgISkIAEVo6AFtuV4+ZVEpCABCSQQwRq1aoV2267bQ71qHy7wnpTxrzddtvF5ptvXr6NWbsEJCABCUggDwgYPCoPJskuSkACEpCABEoSwDWX8t1335Xc7XsJSEACEpBA0RJQ2Bbt1DtwCUhAAhKQgAQkIAEJSEAChUFAYVsY8+goJCABCUhAAhKQgAQkIAEJFC0BhW3RTr0Dl4AEJCABCUhAAhKQgAQkUBgEFLaFMY+OQgISkIAEJCABCUhAAhKQQNESUNgW7dQ7cAlIQAISkIAEJCABCUhAAoVBQGFbGPPoKCQgAQlIQAISkIAEJCABCRQtAYVt0U69A5eABCQgAQlIQAISkIAEJFAYBBS2hTGPjkICEpCABCQgAQlIQAISkEDRElDYFu3UO3AJSEACEpCABCQgAQlIQAKFQUBhWxjz6CgkIAEJSEACEpCABCQgAQkULQGFbdFOvQOXgAQkIAEJSEACEpCABCRQGAQUtoUxj45CAhKQgAQkIAEJSEACEpBA0RJQ2Bbt1DtwCUhAAhKQgAQkIAEJSEAChUFAYVsY8+goJCABCUhAAhKQgAQkIAEJFC0BhW3RTr0Dl4AEJCABCUhAAhKQgAQkUBgEFLaFMY+OQgISkIAEJCABCUhAAhKQQNESUNgW7dQ7cAlIQAISkIAEJCABCUhAAoVBQGFbGPPoKCQgAQlIQAISkIAEJCABCRQtAYVt0U69A5eABCQgAQlIQAISkIAEJFAYBBS2hTGPjkICEpCABCQgAQlIQAISkEDRElDYFu3UO3AJSEACEpCABCQgAQlIQAKFQUBhWxjz6CgkIAEJSEACEpCABCQgAQkULQGFbdFOvQOXgAQkIAEJSEACEpCABCRQGAQUtoUxj45CAhKQgAQkIAEJSEACEpBA0RJQ2Bbt1DtwCUhAAhKQgAQkIAEJSEAChUFAYVsY8+goJCABCUhAAhKQgAQkIAEJFC0BhW3RTr0Dl4AEJCABCUhAAhKQgAQkUBgEFLaFMY+OQgISkIAEJCABCUhAAhKQQNESUNgW7dQ7cAlIQAISkIAEJCABCUhAAoVBQGFbGPPoKCQgAQlIQAISkIAEJCABCRQtAYVt0U69A5eABCQgAQlIQAISkIAEJFAYBBS2hTGPjkICEpCABCQgAQlIQAISkEDRElDYFu3UO3AJSEACEpCABCQgAQlIQAKFQUBhWxjz6CgkIAEJSEACEpCABCQgAQkULQGFbdFOvQOXgAQkIAEJSEACEpCABCRQGAQUtoUxj45CAhKQgAQkIAEJSEACEpBA0RJQ2Bbt1DtwCUhAAhKQgAQkIAEJSEAChUFAYVsY8+goJCABCUhAAhKQgAQkIAEJFC0BhW3RTr0Dl4AEJCABCUhAAhKQgAQkUBgEFLaFMY+OQgISkIAEJCABCUhAAhKQQNESUNgW7dQ7cAlIQAISkIAEJCABCUhAAoVBQGFbGPPoKCQgAQlIQAISkIAEJCABCRQtAYVt0U69A5eABCQgAQlIQAISkIAEJFAYBBS2hTGPjkICEpCABCQgAQlIQAISkEDRElDYFu3UO3AJSEACEpCABCQgAQlIQAKFQUBhWxjz6CgkIAEJSEACEpCABCQgAQkULQGFbdFOvQOXgAQkIAEJSEACEpCABCRQGAQUtoUxj45CAhKQgAQkIAEJSEACEpBA0RJQ2Bbt1DtwCUhAAhKQgAQkIAEJSEAChUFAYVsY8+goJCABCUhAAhKQgAQkIAEJFC0BhW3RTr0Dl4AEJCABCUhAAhKQgAQkUBgEFLaFMY+OQgISkIAEJCABCUhAAhKQQNESUNgW7dQ7cAlIQAISkIAEJCABCUhAAoVBQGFbGPPoKCQgAQlIQAISkIAEJCABCRQtAYVt0U69A5eABCQggXwlULNmzahSpUrUrl07X4dgvyUgAQlIQAJlSqDKj4tLmdZoZRKQgAQkIAEJ/IRA9l8tr//5z38i+/z111/H/PnzY968eTF37tz48ssvY86cOTF79uz0ynv2f/vtt/Hdd9+l7fvvv4+ZM2fGsGHDom3btlG3bt1YffXVo3r16ul1jTXWiLXXXjvtr1OnTmRbvXr1Yp111knHOF6rVq0kjhHIbKut9r/PunlvkYAEJCABCeQbAYVtvs2Y/ZWABCQggZwm8MMPPwTiEyG6aNGiJFpnzZoV06ZNi/Hjx8dHH30UkyZNii+++CKJVkQt51Fq1Kjxkw2LLGKU/YhXtmrVqqXPa621VhLFJUUvbS5cuDC1+dVXXyVBzPFsQ1BTB9dSL6K4cePGsemmm0aLFi1igw02iPr166f9mVDmfESvgjenv3Z2TgISkEDRE1DYFv1XQAASkIAEJLCyBBCKiEYsr2yff/55fPbZZzF27NgYOXJkTJw4MQnYBQsWJIvquuuum8TjxhtvHBtuuGFstNFGS8QkFlWELJZUxGRZFcTuN998k0QwFmEE9dSpU2PKlCnp9dNPP02vWIEZCyKavtC3Vq1aRcuWLYP+NmzYMAniNddcM51TtWrVsuqi9UhAAhKQgARWmYDCdpURWoEEJCABCRQTAUQq4pBt3LhxScSOGDEiWWGxvlIQgc2bN48tt9zyJ8IQwZirBbdnhPnkyZOTVXnUqFFpfIhgLNCIbsT4Vlttlca0xRZbJOsuFl7X+ubqrNovCUhAAsVDQGFbPHPtSCUgAQlIYCUJIGKxxH744YeB4Hv//feTCMSFuEGDBoHIQ/CxbbLJJknYrmRTOXcZY8eqO2bMmGSFHj16dEyfPj31c7311ktjXtqym3ODsEMSkIAEJFDwBBS2BT/FDlACEpCABFaGAG67iNh33303hg8fHp988klaN7v++usnMbf99tvHtttum9x0y9J1eGX6WpHX4H6NVRdxj6UaPqwfJigW63VhstNOOyU3ZtbsWiQgAQlIQAIVQUBhWxGUbUMCEpCABPKCAOIMofbKK6/E0KFD0zpU1rxikd1hhx3SttlmmwXrTC3/SwCr9YQJExK3d955J7Do4taMi3Lr1q2jffv2SejC0SIBCUhAAhIoLwIK2/Iia70SkIAEJJA3BIggPHDgwHj66afTmlmiBiNkd95559hmm22iWbNmYbCk5ZtOXLax5v773/+Ot99+O7lsN2nSJA444IDo2LFjQblpLx8Rz5KABCQggYogoLCtCMq2IQEJSEACOUmA9aMPPfRQPPbYY8nKuOOOO8a+++4bvDZt2jTICWtZOQIEnMJlGXflwYMHxxtvvJHSBh188MHRqVOnQOxaJCABCUhAAmVFQGFbViStRwISkIAE8oYAqXnuueee+Nvf/pbysx566KGB4CKSMSl5LGVLgGjRrFEeNGhQPP744zF79uw45phj4rzzzgsCUFkkIAEJSEACq0pAYbuqBL1eAhKQgATyisCjjz4a1113XcrZ2rlz5zjqqKOiUaNGKX9sXg0kDzvLetwZM2bEgAED4q677goE70UXXRRnn312Ho7GLktAAhKQQC4RUNjm0mzYFwlIQAISKDcCH3/8cVx44YXJJbZLly5x1llnBVF7q1evXm5tWnHpBHBTJur0/fffH927d0+W8ltvvTUFmyr9CvdKQAISkIAEfpnAar982KMSkIAEJCCB/CfQp0+fFJ137ty5yVp47bXXpjW0itrKmdtq1aql/L8XX3xxvPXWW2m97d577x3dunWrnA7ZqgQkIAEJ5D0BLbZ5P4UOQAISkIAElkWAtDO4HbOW9vzzz09ur7Vr117W6e6vRAK9e/eOrl27pgcQd999t2tvK3EubFoCEpBAPhJQ2ObjrNlnCUhAAhL4rwRIO/PHP/4xhgwZEj179oxDDjnkv17jCZVLYMyYMXHiiScG+YSJVr3llltWbodsXQISkIAE8oaArsh5M1V2VAISkIAElpcAEXgvuOCCGDlyZBAsSlG7vOQq9zyELPmEN9xwwzj22GPjnXfeqdwO2boEJCABCeQNAS22eTNVdlQCEpCABJaHwPTp0+N3v/tdErX/+Mc/YquttlqeyzwnhwgQWOq0006LTz/9NP7+9787hzk0N3ZFAhKQQK4S0GKbqzNjvyQgAQlIYIUJfPPNN3HbbbfF66+/nvLUImp//PHHFa7HCyqXQL169ZL7eP369eOSSy5JKYIqt0e2LgEJSEACuU5AYZvrM2T/JCABCUhguQggYF966aW499574/rrr4+ddtopXVelSpXlut6TcosA7sjXXHNNTJkyJe644w4fUOTW9NgbCUhAAjlHQGGbc1NihyQgAQlIYGUIzJ49O2688cbo0KFDHHfccStTRYVfgxjHykxe11wtBOEiqvSIESNK7SLce/XqFRMmTCj1+Krs5OEEwaSefvrpePPNN1elKq+VgAQkIIECJ6CwLfAJdngSkIAEioEAAvG1116L0aNHxxVXXJE3Q54/f35aS/ryyy/nbJ8JxIVwXVYgpxkzZqQ1ze+//365jOHII4+MddddN4nbXH4AUC6Dt1IJSEACElhuAgrb5UbliRKQgAQkkKsEEDz//Oc/Y88994wWLVqUazcRoytTSGGzYMGCn1z67bffprQ2CPKly3fffRcc/6WCtbdkgcMvrSletGhRydN/9r609rbZZpu0XvnAAw/8yfmMh7LWWmvFwoUL44cffvjJ8bL60Lhx49hjjz3i3XffLRercFn103okIAEJSKByCShsK5e/rUtAAhKQQBkQ+Prrr2Po0KFx0EEHlUFtpVfx+OOPx/777x+tW7cORN6gQYPSiQSq6tSpU0yaNCl9Rjw+9dRT8fvf/z5mzpyZ3Izvv//+2GuvvaJNmzZxxBFHJOsnx04//fR0zV133RU333xzej9nzpxkdd5ll13S+eeee2589NFH6di4ceOSdRTX4BNOOCE4p3PnzjFq1Ki0HnX33XdPqY2efPLJdD7/IMRvv/321P7OO+8cXbt2DSJHU7766qs444wzom/fvumVFDtLC+PPP/88BgwYELRNmTp1alx66aXRvn37OOaYYwIu1atXj9VWK79bih122CHmzp0bWI8tEpCABCQggdIIlN//QqW15j4JSEACEpBAORBAqCHgtttuu3KoPeLBBx+MM888MwhEhYidPHlyHH/88cH6U1LS9OnTJ0hRQ8FyyXpU1oViAe3Xr18SnZtsskkSshMnToyOHTsmoUjUZups0qRJsjRjpb3ooovi1ltvjXbt2sWhhx4azz33XJx//vmpLURv//7946yzzgosplioEaXUR75eLJsIz8suuyzee++9JKpvuOGGuPLKK6N58+ax3377Jcv2SSedFKyNxdL6yCOPpH69+uqr6Zylg20xVoT52LFj09joC8Gctt5661h77bXj8ssvT+0sfV1ZTsTGG2+chDNuzxYJSEACEpBAaQSqlbbTfRKQgAQkIIF8IoA1D4shaWLKuiAUyYe7+eabR/fu3aNVq1bRtm3bFKBq+PDhUbVq1WUGf8I1mHMQkIhRrsNye8stt6S+nnfeefHnP/85WYCxAr/xxhvx8MMPJ4soVlHKlltuGeecc04MHjw4cAvGOn344YfHTTfdFOuvv36MHz8+nn/++Rg2bFjK94pAPeyww5IQRShT3wUXXBB//OMfU33bbrttWtfLmuTddtstsDC3bNkyWWXr1KmTzintnxo1agSW4BdeeCFx+PWvfx1rrLFGGgdBu8qzrLnmmskqvLQrd3m2ad0SkIAEJJBfBLTY5td82VsJSEACEiiFQM2aNZMFszyED8KWiL+4/WL1pOCGSzAlXJNLC2iE9RKX3tVXXz25LmNNRmziPsx62r/85S+xxRZbpD5nw0GYI4IRkFhgs4IVGoslApbxYRHGMkuO10zMN2jQIFmrcQleZ511olq1aklMY1GeNm1a/Pvf/05imZywWICpB4su/UT84oLcqFGjgGNpBfFOu9TDeYyftbW0h8DNxlvatWWxD/FNP+FpkYAEJCABCZRGQIttaVTcJwEJSEACeUUAsYX4Yi0q1seyLIhShCBtIDopCDnyrJYUdLynIGgRYbziisyaWoTnnXfemSI3P/TQQ9G0adO0Drdhw4bpmuy6WbNmJVGKOM0K9bIhLHE/5n3t2rXTa3ZdSUFKu5zDuVh36QMCl0BT1IHo/dWvfpWENeey1apVK2tuma9ciys05yJos0JfynN9Le0gzmkfMW+RgAQkIAEJlEZAi21pVNwnAQlIQAJ5RQAhyHpV3GTLutStWzdw0UUcZhZh1pvuu+++yfqJOy4lO8Yr1lWsiwhc3ISxOOLOTPAj3HlZK8oa3EwQZuIVyyxCtGROWNa4IuwQ0ghYhOjSZel9fEbowwV35cxSS8ArXJOPPvro2HHHHZfUtfT1pdWPICZC8ZQpUwIBnhXS/CA6y7Ng5WbsrEW2SEACEpCABEojoLAtjYr7JCABCUggrwggush3+uyzz6ZIv2XZedIH4YZMkCaiHRP86crFwZheeumlJPSwuiIie/fuHSNHjkwCFvGI4EWwPvPMMyk4E32bN29esphyjNysWD4RwLgFI14JBoUFtFu3bvHhhx/GmDFjUqod1pjuuuuuqb6lU/pgmV1aWHIOGwGesDQT7Ontt99OfSfK8mmnnZbENZy4nm1ZBdGbtYmll76zvpc+s11//fXLurRM9sOMdcObbrrpElfwMqnYSiQgAQlIoKAI6IpcUNPpYCQgAQkUJwEsn4ccckhKmdOrV69koSwrElgK//CHP8QXX3yRXhGjWFV79OiRAklhlT355JNT9GOss5xPICgEK8GsEJFYNc8+++xk+WXNLhGPcVEmqjDWU0Qv7soEkiLtD4GeqAPBjGhHSJPyhlyuzZo1C6zIHKNgkcWSmll/aR/LL2KYSMzXXntt4kE7nEN/Ebqk/kE0EhSL+pZVqIf66QfpighqRbAoUv0giAluhbs2grw8ClZmRP6f/vSntK63PNqwTglIQAISyH8CVRY/if25T1P+j8sRSEACEpBAkRHAaolgw9o5cODA5JpcFgjI9Yp7Ma8Ed8INF7dnLLm4GFMQfW+99VaQ8xUr6QYbbJBy2CJWWZOKmH355ZeTOEaY7r333kmYIgyJmIzlk3MJToX4JIXQm2++md4jQBGqCFLao4311lsvWXuxCJNmCKFNm5l1lfRHiGpEKRZW3IeHDBmSricyM+1ghaUt3J4Rx9n64ZLMqJ+6aYNgUWzUSX9hgWsw1mzctOk/7tLLs163ZBu/9B4OPBCgbh5YlJd4/qU+eEwCEpCABPKDgMI2P+bJXkpAAhKQwHIQQIB16dIlWRDJz4q776qWF198Me69997k7os1FDGIKCQYU/ZsGOtpdgzxyXHELqKVcxCXbAhFxCzXcg4Fyy7HsjqpH5HJfgr1UQ/X0Q7Hsjaom89cg/imfjb6wjmIYT6XbJ/9iNWs7whV6s/6kxr9//9wDuPASk1dWX2IV/bTJ+riONeTvogUQmVRGM8VV1yRXL7vueeeZLEui3qtQwISkIAECpOArsiFOa+OSgISkEBREsBKefXVV8cpp5wSXbt2TVa+X8rNujyQsI7utNNOSfwhErNS8n0mErNj2Wt2TmnHSztW2j7qyvbzPqsr27f05186h2OU7Frel3Y9+7OSHedzdl3Jfdl5iO6yyiOMgCbXb//+/ZMrNW7YFglIQAISkMAvEdBi+0t0PCYBCUhAAnlJYPDgwfG73/0uuQx37949ubLm5UCKsNNYlHEnv//+++Piiy+OM888swgpOGQJSEACElhRAgrbFSXm+RKQgAQkkBcEcCG+/PLLU2AkoviWdX7bvICQZ53ElZzgVASMIkVR586dl1iJ82wodlcCEpCABCqYgOl+Khi4zUlAAhKQQMUQ2GeffaJnz55pXepxxx0Xjz/+eMU0bCsrRWDo0KFx0EEHxbBhw+K2225T1K4URS+SgAQkULwEFLbFO/eOXAISkEDBE2Bt7J133hnkX73ggguCHK4zZ84s+HHn0wAJOkVKItIfNW3aNMgBzHxl63nzaSz2VQISkIAEKo+ArsiVx96WJSABCUiggggQjOi5555LUXZJ24O7a6dOnRRPFcR/Wc0MGDAg5ewlDy55asmNW5bpgpbVrvslIAEJSKDwCGixLbw5dUQSkIAEJLAUAVLndOzYMa3dPOGEE1JgKdLSPP/880ud6ceKIEDO3wMPPDBwEd9jjz3ilVdeiRNPPFFRWxHwbUMCEpBAgRJQ2BboxDosCUhAAhL4OYH69evHlVdeGazn3HzzzeOoo46K9u3bxzPPPFNqHtef1+CelSVAztshQ4bEYYcdFh06dEh5cF999dW0nrZJkyZpLfTK1u11EpCABCQgAYWt3wEJSEACEig6AptttllKJ/PGG29E48aN4/jjj4+2bdvGXXfdFVOnTo0ffvhhSX7XooNTRgMm1y0ciXT86KOPxn777ZestLiFP/vssylHLflpXUtbRsCtRgISkECRE3CNbZF/ARy+BCQgAQlEjB8/PgWZ6tu3b6y22mpJgB155JGx9dZbx9prrx1rrLGGAmw5vygLFy4M1jHDlDW0Tz75ZBK3BIQ655xzgoBeFglIQAISkEBZE1DYljVR65OABCQggbwlMGfOnOjXr1/06dMnPvjgg9hwww1j7733jnbt2gVW3nXXXTdq166t22yJGcbF+Ouvv47Zs2fHJ598kty8yUOLsN1ggw2SuzdraWFpkYAEJCABCZQXAYVteZG1XglIQAISyGsCo0ePjqeffjoFnJoyZUrUq1cvtttuu8B9tlWrVrH++uvHeuutl4RusbnTLliwIGbNmpU2OI0YMSLefvvtmDFjRtSpUyetWyZY1y677JLX3wE7LwEJSEAC+UNAYZs/c2VPJSABCUigkggg3Ah0xJrciRMnpkBTDRo0iBYtWkSzZs1SICo+I3br1q0bNWrUqKSeln2zixYtirlz5ybRinDFEss2duzYmDZtWmCx3WijjaJNmzZJ0CL8cd22SEACEpCABCqSgMK2ImnblgQkIAEJ5D2Bzz77LFkoR44cGaNGjYrp06fHt99+m8Qc4paNgFSbbLJJNGzYMG2ZCzNph3K1EOgJl2KCPX3++ecpiBZjRcgjaNmw1DIGLNUtW7ZMa5C33377NFbWJlskIAEJSEAClUVAYVtZ5G1XAhKQgATyngARfomi/PHHH8enn36aROCkSZPiiy++iHnz5qWowLVq1Yo111wzueg2atQoCV3EL67NbIheAlTVrFkziePyEIhEKCao0zfffJMCO9E/1sTyiksx4pxxsMZ4/vz5ScByDf2ij6yPbdq0adqaN2+ePtNfiwQkIAEJSCBXCChsc2Um7IcEJCABCRQEAYQhghE3XaycmfUTAYk1lI1zEMVVq1ZNG1ZQBDAuzIjgtdZaK72yLxO8nFutWrW0cT6fsbJ+//33P9lwHcayiojFAktbbHzGssxxrsGFmPqoPxPYvCK+2cj5yyvWWQRusa0jLogvo4OQgAQkUEQEFLZFNNkOVQISkIAEKocAQhJhicDEkks6HEQm7zPrKe8RpGwI0uyV8xCwbIjR7BWLKmITgYuVt+Qra1wzS3HJVwQza4BLWomJ8oxwHDrxaQAAAdpJREFU5RWRW7169cqBZKsSkIAEJCCBVSCgsF0FeF4qAQlIQAISWFUCCNTM8pq9Lm2FRdByHlvJ9whbNoRtyfclrbuZlZfXbD/nWiQgAQlIQAKFREBhW0iz6VgkIAEJSEACEpCABCQgAQkUIQFDGBbhpDtkCUhAAhKQgAQkIAEJSEAChURAYVtIs+lYJCABCUhAAhKQgAQkIAEJFCEBhW0RTrpDloAEJCABCUhAAhKQgAQkUEgEFLaFNJuORQISkIAEJCABCUhAAhKQQBESUNgW4aQ7ZAlIQAISkIAEJCABCUhAAoVEQGFbSLPpWCQgAQlIQAISkIAEJCABCRQhAYVtEU66Q5aABCQgAQlIQAISkIAEJFBIBBS2hTSbjkUCEpCABCQgAQlIQAISkEARElDYFuGkO2QJSEACEpCABCQgAQlIQAKFREBhW0iz6VgkIAEJSEACEpCABCQgAQkUIQGFbRFOukOWgAQkIAEJSEACEpCABCRQSAQUtoU0m45FAhKQgAQkIAEJSEACEpBAERJQ2BbhpDtkCUhAAhKQgAQkIAEJSEAChURAYVtIs+lYJCABCUhAAhKQgAQkIAEJFCEBhW0RTrpDloAEJCABCUhAAhKQgAQkUEgE/h+2RJJNSyd+LAAAAABJRU5ErkJggg==;" vertex="1" parent="1">
          <mxGeometry x="90" width="950" height="410" as="geometry" />
        </mxCell>
        <mxCell id="9yCa0ICLq8U-drlUduMJ-3" value="" style="endArrow=none;html=1;exitX=0;exitY=0.5;exitDx=0;exitDy=0;" edge="1" parent="1" source="9yCa0ICLq8U-drlUduMJ-8">
          <mxGeometry width="50" height="50" relative="1" as="geometry">
            <mxPoint x="300" y="765" as="sourcePoint" />
            <mxPoint x="220" y="715" as="targetPoint" />
          </mxGeometry>
        </mxCell>
        <mxCell id="9yCa0ICLq8U-drlUduMJ-4" value="" style="endArrow=none;html=1;" edge="1" parent="1">
          <mxGeometry width="50" height="50" relative="1" as="geometry">
            <mxPoint x="220" y="689.5" as="sourcePoint" />
            <mxPoint x="300" y="689.5" as="targetPoint" />
          </mxGeometry>
        </mxCell>
        <mxCell id="9yCa0ICLq8U-drlUduMJ-5" value="" style="endArrow=none;html=1;entryX=0;entryY=0.5;entryDx=0;entryDy=0;exitX=1;exitY=0;exitDx=0;exitDy=0;" edge="1" parent="1" source="9yCa0ICLq8U-drlUduMJ-22" target="9yCa0ICLq8U-drlUduMJ-7">
          <mxGeometry width="50" height="50" relative="1" as="geometry">
            <mxPoint x="230" y="660" as="sourcePoint" />
            <mxPoint x="290" y="610" as="targetPoint" />
          </mxGeometry>
        </mxCell>
        <mxCell id="9yCa0ICLq8U-drlUduMJ-7" value="ProductOf" style="rhombus;whiteSpace=wrap;html=1;" vertex="1" parent="1">
          <mxGeometry x="300" y="580" width="70" height="60" as="geometry" />
        </mxCell>
        <mxCell id="9yCa0ICLq8U-drlUduMJ-8" value="BuyerOf" style="rhombus;whiteSpace=wrap;html=1;" vertex="1" parent="1">
          <mxGeometry x="300" y="740" width="70" height="60" as="geometry" />
        </mxCell>
        <mxCell id="9yCa0ICLq8U-drlUduMJ-9" value="CafeOf" style="rhombus;whiteSpace=wrap;html=1;" vertex="1" parent="1">
          <mxGeometry x="300" y="660" width="70" height="60" as="geometry" />
        </mxCell>
        <mxCell id="9yCa0ICLq8U-drlUduMJ-10" value="" style="endArrow=classic;html=1;" edge="1" parent="1">
          <mxGeometry width="50" height="50" relative="1" as="geometry">
            <mxPoint x="370" y="609.5" as="sourcePoint" />
            <mxPoint x="500" y="609.5" as="targetPoint" />
          </mxGeometry>
        </mxCell>
        <mxCell id="9yCa0ICLq8U-drlUduMJ-11" value="" style="endArrow=classic;html=1;" edge="1" parent="1">
          <mxGeometry width="50" height="50" relative="1" as="geometry">
            <mxPoint x="370" y="689.5" as="sourcePoint" />
            <mxPoint x="500" y="689.5" as="targetPoint" />
          </mxGeometry>
        </mxCell>
        <mxCell id="9yCa0ICLq8U-drlUduMJ-12" value="" style="endArrow=classic;html=1;" edge="1" parent="1">
          <mxGeometry width="50" height="50" relative="1" as="geometry">
            <mxPoint x="370" y="769.5" as="sourcePoint" />
            <mxPoint x="500" y="769.5" as="targetPoint" />
          </mxGeometry>
        </mxCell>
        <mxCell id="9yCa0ICLq8U-drlUduMJ-13" value="Cafe" style="rounded=0;whiteSpace=wrap;html=1;" vertex="1" parent="1">
          <mxGeometry x="500" y="745" width="100" height="50" as="geometry" />
        </mxCell>
        <mxCell id="9yCa0ICLq8U-drlUduMJ-14" value="Customer" style="rounded=0;whiteSpace=wrap;html=1;" vertex="1" parent="1">
          <mxGeometry x="500" y="665" width="100" height="50" as="geometry" />
        </mxCell>
        <mxCell id="9yCa0ICLq8U-drlUduMJ-15" value="Product" style="rounded=0;whiteSpace=wrap;html=1;" vertex="1" parent="1">
          <mxGeometry x="500" y="580" width="100" height="50" as="geometry" />
        </mxCell>
        <mxCell id="9yCa0ICLq8U-drlUduMJ-16" value="" style="endArrow=none;html=1;" edge="1" parent="1">
          <mxGeometry width="50" height="50" relative="1" as="geometry">
            <mxPoint x="550" y="580" as="sourcePoint" />
            <mxPoint x="600" y="530" as="targetPoint" />
          </mxGeometry>
        </mxCell>
        <mxCell id="9yCa0ICLq8U-drlUduMJ-17" value="" style="endArrow=none;html=1;" edge="1" parent="1">
          <mxGeometry width="50" height="50" relative="1" as="geometry">
            <mxPoint x="550" y="580" as="sourcePoint" />
            <mxPoint x="500" y="530" as="targetPoint" />
          </mxGeometry>
        </mxCell>
        <mxCell id="9yCa0ICLq8U-drlUduMJ-18" value="" style="endArrow=none;html=1;" edge="1" parent="1">
          <mxGeometry width="50" height="50" relative="1" as="geometry">
            <mxPoint x="550" y="580" as="sourcePoint" />
            <mxPoint x="549.5" y="500" as="targetPoint" />
          </mxGeometry>
        </mxCell>
        <mxCell id="9yCa0ICLq8U-drlUduMJ-19" value="&lt;u&gt;product_id&lt;/u&gt;" style="ellipse;whiteSpace=wrap;html=1;" vertex="1" parent="1">
          <mxGeometry x="410" y="500" width="100" height="40" as="geometry" />
        </mxCell>
        <mxCell id="9yCa0ICLq8U-drlUduMJ-20" value="price" style="ellipse;whiteSpace=wrap;html=1;" vertex="1" parent="1">
          <mxGeometry x="505" y="460" width="90" height="40" as="geometry" />
        </mxCell>
        <mxCell id="9yCa0ICLq8U-drlUduMJ-21" value="product_name" style="ellipse;whiteSpace=wrap;html=1;" vertex="1" parent="1">
          <mxGeometry x="590" y="500" width="100" height="40" as="geometry" />
        </mxCell>
        <mxCell id="9yCa0ICLq8U-drlUduMJ-22" value="Purchase" style="rounded=0;whiteSpace=wrap;html=1;" vertex="1" parent="1">
          <mxGeometry x="120" y="665" width="100" height="50" as="geometry" />
        </mxCell>
        <mxCell id="9yCa0ICLq8U-drlUduMJ-24" value="" style="endArrow=none;html=1;" edge="1" parent="1">
          <mxGeometry width="50" height="50" relative="1" as="geometry">
            <mxPoint x="600" y="692.5" as="sourcePoint" />
            <mxPoint x="710" y="693" as="targetPoint" />
          </mxGeometry>
        </mxCell>
        <mxCell id="9yCa0ICLq8U-drlUduMJ-27" value="&lt;u&gt;customer_id&lt;/u&gt;" style="ellipse;whiteSpace=wrap;html=1;" vertex="1" parent="1">
          <mxGeometry x="710" y="670" width="100" height="40" as="geometry" />
        </mxCell>
        <mxCell id="9yCa0ICLq8U-drlUduMJ-29" value="" style="endArrow=none;html=1;" edge="1" parent="1">
          <mxGeometry width="50" height="50" relative="1" as="geometry">
            <mxPoint x="480" y="860" as="sourcePoint" />
            <mxPoint x="550" y="795" as="targetPoint" />
          </mxGeometry>
        </mxCell>
        <mxCell id="9yCa0ICLq8U-drlUduMJ-31" value="" style="endArrow=none;html=1;" edge="1" parent="1">
          <mxGeometry width="50" height="50" relative="1" as="geometry">
            <mxPoint x="550" y="795" as="sourcePoint" />
            <mxPoint x="620" y="860" as="targetPoint" />
          </mxGeometry>
        </mxCell>
        <mxCell id="9yCa0ICLq8U-drlUduMJ-32" value="location" style="ellipse;whiteSpace=wrap;html=1;" vertex="1" parent="1">
          <mxGeometry x="610" y="850" width="100" height="40" as="geometry" />
        </mxCell>
        <mxCell id="9yCa0ICLq8U-drlUduMJ-34" value="&lt;u&gt;cafe_name&lt;/u&gt;" style="ellipse;whiteSpace=wrap;html=1;" vertex="1" parent="1">
          <mxGeometry x="400" y="850" width="100" height="40" as="geometry" />
        </mxCell>
        <mxCell id="9yCa0ICLq8U-drlUduMJ-35" value="" style="endArrow=none;html=1;" edge="1" parent="1">
          <mxGeometry width="50" height="50" relative="1" as="geometry">
            <mxPoint x="170" y="665" as="sourcePoint" />
            <mxPoint x="170" y="600" as="targetPoint" />
          </mxGeometry>
        </mxCell>
        <mxCell id="9yCa0ICLq8U-drlUduMJ-36" value="date" style="ellipse;whiteSpace=wrap;html=1;" vertex="1" parent="1">
          <mxGeometry x="120" y="560" width="100" height="40" as="geometry" />
        </mxCell>
      </root>
    </mxGraphModel>
  </diagram>
</mxfile>
